<?xml version="1.0" encoding="utf-8"?>
<!-- Generator: Adobe Illustrator 19.2.1, SVG Export Plug-In . SVG Version: 6.00 Build 0)  -->
<svg version="1.1" id="Layer_1" xmlns="http://www.w3.org/2000/svg" xmlns:xlink="http://www.w3.org/1999/xlink" x="0px" y="0px"
	 viewBox="0 0 460 370.9" style="enable-background:new 0 0 460 370.9;" xml:space="preserve">
<style type="text/css">
	.st0{fill:#C8523B;}
	.st1{fill:#E5C400;}
	.st2{fill:#59595A;}
	.st3{fill:#608A7C;}
	.st4{fill:#ABCB57;}
	.st5{fill:#B9BBBC;}
	.st6{opacity:0.3;fill:#5B5B5F;enable-background:new    ;}
</style>
<polygon class="st0" points="79.3,96.8 76.6,133.2 129.1,133.2 131.8,96.8 "/>
<polygon class="st1" points="64.1,305.1 116.5,306.9 117.3,295.9 64.9,294.1 "/>
<polygon class="st0" points="62.2,330.9 114.7,330.9 116.5,306.9 64.1,305.2 "/>
<polygon class="st0" points="64.9,294.1 117.3,295.9 127.1,157.4 74.6,157.4 "/>
<polygon class="st1" points="74.6,157.4 127.1,157.4 129.1,133.2 76.6,133.2 "/>
<rect x="133.2" class="st1" width="72.6" height="40.4"/>
<rect x="133.2" y="113" class="st1" width="72.6" height="217.9"/>
<rect x="133.2" y="40.4" class="st2" width="72.6" height="72.6"/>
<rect x="213.9" y="149.3" class="st3" width="52.5" height="44.4"/>
<rect x="213.9" y="193.7" class="st4" width="52.5" height="84.7"/>
<rect x="213.9" y="294.6" class="st4" width="52.5" height="36.3"/>
<rect x="213.9" y="278.4" class="st1" width="52.5" height="16.1"/>
<rect x="213.9" y="88.8" class="st4" width="52.5" height="60.5"/>
<rect x="213.9" y="36.3" class="st4" width="52.5" height="40.3"/>
<rect x="213.9" y="76.7" class="st3" width="52.5" height="12.1"/>
<polygon class="st4" points="293.7,27.2 268.4,28.9 269.5,42.7 294.8,40.9 "/>
<polygon class="st3" points="292.3,330.9 317.7,330.9 315,295.8 289.8,299.1 "/>
<polygon class="st3" points="291.5,-2 266.2,0 268.4,28.9 293.7,27.2 "/>
<polygon class="st3" points="294.8,40.9 269.5,42.7 287.9,276 313.1,272.7 "/>
<polygon class="st4" points="287.9,276 289.8,299 315,295.8 313.1,272.7 "/>
<rect x="322.8" y="278.4" class="st0" width="72.6" height="52.5"/>
<rect x="322.8" y="60.5" class="st0" width="72.6" height="157.4"/>
<rect x="322.8" y="217.9" class="st1" width="72.6" height="60.5"/>
<rect y="330.9" class="st5" width="460" height="40"/>
<rect y="350.9" class="st6" width="460" height="20"/>
</svg>
