<?xml version="1.0" encoding="utf-8"?>
<!-- Generator: Adobe Illustrator 19.2.1, SVG Export Plug-In . SVG Version: 6.00 Build 0)  -->
<svg version="1.1" id="Layer_1" xmlns="http://www.w3.org/2000/svg" xmlns:xlink="http://www.w3.org/1999/xlink" x="0px" y="0px"
	 viewBox="0 0 960 800" style="enable-background:new 0 0 960 800;" xml:space="preserve">
<style type="text/css">
	.st0{fill:#FAFBFB;}
</style>
<path class="st0" d="M349.4,773.9c0,0.5-0.1,1-0.3,1.4c10.6,1.7,21.2,3.2,31.7,5.1c0.1,0,0.2-0.1,0.3-0.1
	c12.1-3.4,24.6-5.2,37.1-6.1c1.9-1,3.9-2,5.8-3c-4.7,0-9.3-0.1-14-0.1c-14.9-0.1-29.7,0.2-44.6,0.7c-3.8,0.5-7.7,1-11.5,1.5
	C352.5,773.5,351,773.7,349.4,773.9z"/>
<path class="st0" d="M431.9,761.3c3.8,0,7.6,0.1,11.5,0.2c2.4-1.3,4.9-2.6,7.4-3.8c-4.6,0.9-9.2,1.8-13.8,2.7
	C435.3,760.7,433.6,761,431.9,761.3z"/>
<path class="st0" d="M285.4,739.4c0.4,0.7,0.6,1.6,0.7,2.4c5.3,0.2,10.7,0.4,16,0.6c-0.3-1.1-0.2-2.5,0.2-3.6
	C296.7,738.9,291,739.1,285.4,739.4z"/>
<path class="st0" d="M504.2,732.6c-0.3,0.6-0.6,1.1-0.9,1.6c5.8,0.5,11.5,0.9,17.3,1.5C515.1,734.6,509.7,733.6,504.2,732.6z"/>
<path class="st0" d="M237,757.5c0.3-0.4,0.7-0.7,1-1c3.5-2.4,7.1-4.5,10.8-6.5c-1.4-0.1-2.8-0.1-4.2-0.2c-9.5-0.5-19-1.1-28.5-1.6
	c-2.9,0.6-5.7,1.2-8.6,1.9C217.5,751.9,227.4,754.2,237,757.5z"/>
<path class="st0" d="M714.3,751.4c0.9,0.8,1.4,2.1,1.4,3.4c2.3,0.8,4.7,1.5,7.1,2.1c1.2,0.3,2.3,0.6,3.5,0.9c-0.4-2.4,1-5,3.5-5.9
	c1.5-0.5,2.9-1.1,4.4-1.6C727.6,750.6,720.9,751,714.3,751.4z"/>
<path class="st0" d="M7,769.6c2.8-1.1,5.2,1.2,6.2,3.5c0.5,1.2,0.6,2.3,1.4,3.2c0,0,0,0,0,0.1c2.7-0.8,5.5-1.6,8.2-2.5
	c7.1-7.2,16.8-12.1,26.2-15.5c6.5-2.3,13.1-4,19.9-5.4c7-3.9,13.9-8,20.8-12.2c3.1-2,6.2-3.9,9.3-5.8c5.5-3.3,10.5,5.2,5,8.6
	c-3.2,2-6.5,4-9.7,6c0.7-0.1,1.5-0.1,2.2-0.2c2.6-1.6,5.2-3.3,7.8-5c3.2-2.1,6.2,0,7.1,2.9c0.9-0.3,1.8-0.6,2.7-0.9
	c-0.3-1.8,0.3-3.6,2.4-4.6c0.4-0.2,0.8-0.3,1.2-0.5c0,0,0,0,0,0c0.2,0,0.4-0.1,0.6-0.1c0.1,0,0.1,0,0.2,0c11.4-2.5,22.9-1.3,34.4,0
	c2.6,0.3,4.4,2.2,4.8,4.4c8.7,0.4,17.5,1.2,26.2,1.8c8.9,0.5,17.9,1.1,26.8,1.6c-3.2-2.5-2.2-8.9,3-9.1c22.3-0.7,44.5-0.8,66.8-0.7
	c2.9,0,5.8,0,8.7-0.1c20.1-0.1,40.3-0.1,60.4,0.1c1.1-0.8,2.3-1.6,3.6-2.2c8.2-4,17.9-5,26.9-5.6c11.1-0.7,22.2-0.4,33.3,0.1
	c8.5,0.4,16.9,1,25.4,1.5c0.7-0.1,1.4-0.1,2.1-0.2c2.9-0.2,5.9-0.5,8.8-0.7c2.3-0.2,5.1-0.9,7.2-0.2c1.4,0.4,2.8,1.6,3.6,2.9
	c1.5,2.6,0.6,5.4-1.6,7.1c4.3,0.2,8.6,0.4,12.9,0.7c0.9,0.1,1.7,0.3,2.3,0.7c5.9,0.4,11.8,0.8,17.6,1.2c2-2.1,3.7-4.7,4.9-7.7
	c1.1-2.7,3.3-4,6.2-3.5c23.2,4.3,46.2,8.9,69.2,13.9c0.6-0.8,1.4-1.4,2.3-1.7c1.8-0.7,4.6-0.2,6.4-0.2c3.2,0,6.5,0,9.7,0.1
	c6.8,0.1,13.6,0.5,20.4,1.3c3.9,0.4,6.1,5.2,4.3,8c53.4,4.3,107.1-5,160.6-3.9c6.6,0.1,6.3,9.4,0,10c-11.3,1.2-22.1,4.5-32.8,8.2
	c3.3,2.1,6.5,4.6,8.8,7.5c8.1,0.3,16,1.5,24,2.8c4.5,0.7,4.5,7.1,1.4,9.2c6.1,0.4,12.1,0.8,18.2,1.2c8.9-0.9,18.1-0.4,27.2-0.1
	c4.2-1.6,9.7-1.8,12.9-2.1c8.8-0.9,17.6-1.4,26.4-1.5c0.7-1.2,1.9-2.2,3.1-2.6c19.3-6.4,38.8-11.5,58.5-14.4
	c0.3-0.2,0.6-0.3,0.9-0.5c11.9-4,23.8-8,35.3-13c0.1,0,0.2-0.1,0.3-0.1v-16.7h0V116.2c-12.2-8-28.5-12.9-46.5-12.9
	c-4.9,0-9.6,0.4-14.2,1c-19.6-17.3-49.8-28.3-83.6-28.3c-40.5,0-75.7,15.8-93.9,39.2c-12-7.4-27.7-11.9-45-11.9
	c-24.4,0-45.8,9-57.9,22.5c-7-3.4-15.5-5.3-24.6-5.3c-10.9,0-20.9,2.8-28.5,7.5c-11.7-14.7-34-24.7-59.6-24.7
	c-11.3,0-22,1.9-31.3,5.4c-17.2-14.3-42.9-23.4-71.6-23.4c-34.9,0-65.4,13.4-81.5,33.3c-9.9-5.3-22.2-8.5-35.7-8.5
	c-5.5,0-10.8,0.5-15.8,1.5c-15.2-11.5-36.9-18.7-61-18.7c-23.7,0-45,7-60.2,18.2c-18-18-47.8-29.8-81.5-29.8
	c-25,0-47.9,6.5-65.4,17.3v615h0V772C3.7,771.1,5.3,770.3,7,769.6z"/>
<path class="st0" d="M692.8,761.2c0.8,0.8,1.2,2,1.3,3.1c2.7-0.4,5.3-1,7.9-1.6c-0.2-0.6-0.2-1.2-0.1-1.9
	C698.9,761,695.8,761.1,692.8,761.2z"/>
<path class="st0" d="M363.9,740.6c-3.6-0.3-7.3-0.5-11-0.7c0,0,0,0,0,0c0,0.8,0,1.2,0.2,1.9c3,0.7,6.1,1.4,9.1,2.1
	c5.7,1.3,4.1,9.6-1.3,9.8c-8.4,0.4-16.9,0.5-25.3,0.5c-0.7,0.9-1.5,1.8-2.3,2.5c0.5,2.3-0.9,5-3.5,6c0.5,0.2,0.9,0.4,1.2,0.7
	c11-0.6,21.9-1,32.9-1.4c23.9-3.2,47.7-7,71.4-11.5c5.7-1.1,11.5-2.2,17.2-3.3c-0.7-0.1-1.3-0.2-2-0.4
	C421.6,744.7,392.7,742.7,363.9,740.6z"/>
</svg>
