<?xml version="1.0" encoding="utf-8"?>
<!-- Generator: Adobe Illustrator 19.2.1, SVG Export Plug-In . SVG Version: 6.00 Build 0)  -->
<svg version="1.1" id="Layer_1" xmlns="http://www.w3.org/2000/svg" xmlns:xlink="http://www.w3.org/1999/xlink" x="0px" y="0px"
	 viewBox="0 0 960 800" style="enable-background:new 0 0 960 800;" xml:space="preserve">
<style type="text/css">
	.st0{fill:#FAFBFB;}
</style>
<path class="st0" d="M957.9,116.6c-12.2-8-28.5-12.9-46.5-12.9c-4.9,0-9.6,0.4-14.2,1c-19.6-17.3-49.8-28.3-83.6-28.3
	c-40.5,0-75.7,15.8-93.9,39.2c-12-7.4-27.7-11.9-45-11.9c-24.4,0-45.8,9-57.9,22.5c-7-3.4-15.5-5.3-24.6-5.3
	c-10.9,0-20.9,2.8-28.5,7.5c-11.7-14.7-34-24.7-59.6-24.7c-11.3,0-22,1.9-31.3,5.4c-17.2-14.3-42.9-23.4-71.6-23.4
	c-34.9,0-65.4,13.4-81.5,33.3c-9.9-5.3-22.2-8.5-35.7-8.5c-5.5,0-10.8,0.5-15.8,1.5c-15.2-11.5-36.9-18.7-61-18.7
	c-23.7,0-45,7-60.2,18.2c-18-18-47.8-29.8-81.5-29.8c-25,0-47.9,6.5-65.4,17.3v615h0v66.2c5.7,0.7,11.5,1.1,17.5,1.1
	c33.9,0,63.7-12.4,80.7-31.1c5.8,1.5,12.1,2.3,18.7,2.3c9.2,0,17.9-1.6,25.5-4.4c16.4,18.9,46,31.6,79.8,31.6
	c26.3,0,50.1-7.7,67.1-20c21.6,24.2,59.9,40.3,103.5,40.3c37.7,0,71.4-12,93.8-30.9c8.9,2.3,18.4,3.5,28.4,3.5
	c23.8,0,45.3-7.1,60.5-18.4c7,2,14.7,3.1,22.8,3.1c2.3,0,4.6-0.1,6.9-0.3c16.5,12.5,40,20.3,66.1,20.3c14.6,0,28.4-2.5,40.5-6.8
	c22.4,18,55.3,29.4,92,29.4c34,0,64.7-9.7,86.8-25.5c14.1,5.5,30.3,8.6,47.5,8.6c6.8,0,13.5-0.5,19.9-1.4v-42.8h0V116.6z"/>
</svg>
