<?xml version="1.0" encoding="utf-8"?>
<!-- Generator: Adobe Illustrator 19.2.1, SVG Export Plug-In . SVG Version: 6.00 Build 0)  -->
<svg version="1.1" id="Layer_1" xmlns="http://www.w3.org/2000/svg" xmlns:xlink="http://www.w3.org/1999/xlink" x="0px" y="0px"
	 viewBox="0 0 512 435.2" style="enable-background:new 0 0 512 435.2;" xml:space="preserve">
<style type="text/css">
	.st0{fill:#0091EA;}
	.st1{fill:#4CAF50;}
	.st2{fill:#2979FF;}
	.st3{fill:#FFC107;}
	.st4{fill:#388E3C;}
</style>
<path class="st0" d="M17.1,85.3v194.3l139.4-123.9c3.2-2.8,8.1-2.8,11.3,0L315,286.5l54.1-61.8c3.2-3.7,9.6-3.7,12.8,0l44.8,51.2
	V85.3H17.1z M307.2,204.8c-18.9,0-34.1-15.3-34.1-34.1s15.3-34.1,34.1-34.1c18.9,0,34.1,15.3,34.1,34.1S326.1,204.8,307.2,204.8z"/>
<path class="st1" d="M426.7,301.9v116.2H17.1V302.5l145.1-128.9l148,131.5c1.6,1.5,3.9,2.1,6.1,2.1c2.3-0.2,4.4-1.2,5.9-2.9
	l53.3-60.9L426.7,301.9z"/>
<path d="M494.9,0H85.3c-9.4,0-17.1,7.7-17.1,17.1v17.1H51.2c-9.4,0-17.1,7.7-17.1,17.1v17.1H17.1C7.7,68.3,0,75.9,0,85.3v332.8
	c0,9.4,7.7,17.1,17.1,17.1h409.6c9.4,0,17.1-7.7,17.1-17.1v-17.1h17.1c9.4,0,17.1-7.7,17.1-17.1v-17.1h17.1
	c9.4,0,17.1-7.7,17.1-17.1V17.1C512,7.7,504.3,0,494.9,0z M426.7,418.1H17.1V302.5l145.1-128.9l148,131.5c1.6,1.5,3.9,2.1,6.1,2.1
	c2.3-0.2,4.4-1.2,5.9-2.9l53.3-60.9l51.2,58.5L426.7,418.1L426.7,418.1z M426.7,276l-44.8-51.2c-3.2-3.7-9.6-3.7-12.8,0L315,286.5
	L167.8,155.7c-3.2-2.8-8.1-2.8-11.3,0L17.1,279.6V85.3h409.6V276z M460.8,384h-17.1V85.3c0-9.4-7.7-17.1-17.1-17.1H51.2V51.2h409.6
	L460.8,384L460.8,384z M494.9,349.9h-17.1V51.2c0-9.4-7.7-17.1-17.1-17.1H85.3V17.1h409.6V349.9z"/>
<g>
	<path class="st2" d="M494.9,17.1v332.8h-17.1V51.2c0-9.4-7.7-17.1-17.1-17.1H85.3V17.1H494.9z"/>
	<path class="st2" d="M460.8,51.2V384h-17.1V85.3c0-9.4-7.7-17.1-17.1-17.1H51.2V51.2H460.8z"/>
</g>
<path d="M307.2,136.5c-18.9,0-34.1,15.3-34.1,34.1s15.3,34.1,34.1,34.1s34.1-15.3,34.1-34.1S326.1,136.5,307.2,136.5z M307.2,187.7
	c-9.4,0-17.1-7.7-17.1-17.1c0-9.4,7.7-17.1,17.1-17.1s17.1,7.7,17.1,17.1C324.3,180.1,316.6,187.7,307.2,187.7z"/>
<circle class="st3" cx="307.2" cy="170.7" r="17.1"/>
<polygon class="st2" points="401.1,85.3 401.1,246.7 426.7,276 426.7,85.3 "/>
<polygon class="st4" points="401.1,272.6 401.1,418.1 426.7,418.1 426.7,301.9 "/>
</svg>
