<?xml version="1.0" encoding="utf-8"?>
<!-- Generator: Adobe Illustrator 19.2.1, SVG Export Plug-In . SVG Version: 6.00 Build 0)  -->
<svg version="1.1" id="Layer_1" xmlns="http://www.w3.org/2000/svg" xmlns:xlink="http://www.w3.org/1999/xlink" x="0px" y="0px"
	 viewBox="0 0 800 224" style="enable-background:new 0 0 800 224;" xml:space="preserve">
<style type="text/css">
	.st0{fill:#FFCC80;}
	.st1{fill:#80DEEA;}
	.st2{fill:#FAFAFA;}
	.st3{clip-path:url(#SVGID_2_);}
	.st4{fill:#FF8A65;}
	.st5{fill:#FF7043;}
	.st6{fill:#E0E0E0;}
	.st7{fill:#BDBDBD;}
	.st8{fill:#616161;}
	.st9{fill:#FCB316;}
	.st10{fill:#FFD54E;}
	.st11{fill:#E53935;}
	.st12{fill:#212121;}
	.st13{fill:#43A047;}
	.st14{fill:#81C784;}
	.st15{fill:#434343;}
	.st16{fill:#F5F5F5;}
	.st17{fill:#FFE0B2;}
	.st18{fill:#FFCA28;}
	.st19{fill:#EF5350;}
	.st20{fill:#EEEEEE;}
	.st21{fill:#FFB74D;}
	.st22{fill:#E1F5FE;}
	.st23{fill:#4DB6AC;}
	.st24{fill:#B3E5FC;}
	.st25{clip-path:url(#SVGID_4_);}
	.st26{fill:#C62828;}
	.st27{fill:#D32F2F;}
	.st28{fill:#FFA000;}
	.st29{fill:#039BE5;}
	.st30{fill:#317E3D;}
	.st31{fill:#DDA254;}
	.st32{fill:none;stroke:#FFCE8D;stroke-miterlimit:10;}
</style>
<rect x="-503.8" y="-960.4" class="st0" width="800" height="800"/>
<g>
</g>
<g>
	<rect x="-0.4" y="-898.6" class="st1" width="802.2" height="1135.2"/>
	<g>
		<path class="st2" d="M609.8-881.4h-2c-2.9,0-5.2-2.3-5.2-5.2v-1.9c0-0.8-0.6-1.5-1.4-1.6c-0.9,0-1.6,0.6-1.6,1.5v2
			c0,2.9-2.3,5.2-5.2,5.2h-2c-0.8,0-1.5,0.7-1.5,1.5l0,0c0,0.8,0.7,1.5,1.5,1.5h2c2.9,0,5.2,2.3,5.2,5.2v1.9c0,0.8,0.6,1.5,1.4,1.6
			c0.9,0,1.6-0.6,1.6-1.5v-2c0-2.9,2.3-5.2,5.2-5.2h2c0.8,0,1.5-0.7,1.5-1.5l0,0C611.3-880.8,610.6-881.4,609.8-881.4z"/>
		<path class="st2" d="M318.5-801.2h-2c-2.9,0-5.2-2.3-5.2-5.2v-1.9c0-0.8-0.6-1.5-1.4-1.6c-0.9,0-1.6,0.6-1.6,1.5v2
			c0,2.9-2.3,5.2-5.2,5.2h-2c-0.8,0-1.5,0.7-1.5,1.5l0,0c0,0.8,0.7,1.5,1.5,1.5h2c2.9,0,5.2,2.3,5.2,5.2v1.9c0,0.8,0.6,1.5,1.4,1.6
			c0.9,0,1.6-0.6,1.6-1.5v-2c0-2.9,2.3-5.2,5.2-5.2h2c0.8,0,1.5-0.7,1.5-1.5l0,0C320-800.5,319.3-801.2,318.5-801.2z"/>
		<path class="st2" d="M494.4-789.5h-2c-2.9,0-5.2-2.3-5.2-5.2v-1.9c0-0.8-0.6-1.5-1.4-1.6c-0.9,0-1.6,0.6-1.6,1.5v2
			c0,2.9-2.3,5.2-5.2,5.2h-2c-0.8,0-1.5,0.7-1.5,1.5l0,0c0,0.8,0.7,1.5,1.5,1.5h2c2.9,0,5.2,2.3,5.2,5.2v1.9c0,0.8,0.6,1.5,1.4,1.6
			c0.9,0,1.6-0.6,1.6-1.5v-2c0-2.9,2.3-5.2,5.2-5.2h2c0.8,0,1.5-0.7,1.5-1.5l0,0C495.9-788.8,495.2-789.5,494.4-789.5z"/>
		<path class="st2" d="M668.5-822.2h-1.1c-1.6,0-3-1.3-3-3v-1.1c0-0.5-0.3-0.9-0.8-0.9c-0.5,0-0.9,0.4-0.9,0.9v1.1c0,1.6-1.3,3-3,3
			h-1.1c-0.5,0-0.9,0.4-0.9,0.9l0,0c0,0.5,0.4,0.9,0.9,0.9h1.1c1.6,0,3,1.3,3,3v1.1c0,0.5,0.3,0.9,0.8,0.9c0.5,0,0.9-0.4,0.9-0.9
			v-1.1c0-1.6,1.3-3,3-3h1.1c0.5,0,0.9-0.4,0.9-0.9l0,0C669.3-821.8,669-822.2,668.5-822.2z"/>
		<path class="st2" d="M36.9-790.4h-1.1c-1.6,0-3-1.3-3-3v-1.1c0-0.5-0.3-0.9-0.8-0.9c-0.5,0-0.9,0.4-0.9,0.9v1.1c0,1.6-1.3,3-3,3
			H27c-0.5,0-0.9,0.4-0.9,0.9l0,0c0,0.5,0.4,0.9,0.9,0.9h1.1c1.6,0,3,1.3,3,3v1.1c0,0.5,0.3,0.9,0.8,0.9c0.5,0,0.9-0.4,0.9-0.9v-1.1
			c0-1.6,1.3-3,3-3h1.1c0.5,0,0.9-0.4,0.9-0.9l0,0C37.8-790,37.4-790.4,36.9-790.4z"/>
		<path class="st2" d="M179.4-880.8h-1.1c-1.6,0-3-1.3-3-3v-1.1c0-0.5-0.4-0.9-0.8-0.9c-0.5,0-0.9,0.4-0.9,0.9v1.1c0,1.6-1.3,3-3,3
			h-1.1c-0.5,0-0.9,0.4-0.9,0.9l0,0c0,0.5,0.4,0.9,0.9,0.9h1.1c1.6,0,3,1.3,3,3v1.1c0,0.5,0.3,0.9,0.8,0.9c0.5,0,0.9-0.4,0.9-0.9
			v-1.1c0-1.6,1.3-3,3-3h1.1c0.5,0,0.9-0.4,0.9-0.9l0,0C180.3-880.4,179.9-880.8,179.4-880.8z"/>
		<path class="st2" d="M774.8-810.7h-1.1c-1.6,0-3-1.3-3-3v-1.1c0-0.5-0.4-0.9-0.8-0.9c-0.5,0-0.9,0.4-0.9,0.9v1.1c0,1.6-1.3,3-3,3
			h-1.1c-0.5,0-0.9,0.4-0.9,0.9l0,0c0,0.5,0.4,0.9,0.9,0.9h1.1c1.6,0,3,1.3,3,3v1.1c0,0.5,0.4,0.9,0.8,0.9c0.5,0,0.9-0.4,0.9-0.9
			v-1.1c0-1.6,1.3-3,3-3h1.1c0.5,0,0.9-0.4,0.9-0.9l0,0C775.6-810.3,775.3-810.7,774.8-810.7z"/>
		<path class="st2" d="M622.1-770.9h-1.1c-1.6,0-3-1.3-3-3v-1.1c0-0.5-0.4-0.9-0.8-0.9c-0.5,0-0.9,0.4-0.9,0.9v1.1c0,1.6-1.3,3-3,3
			h-1.1c-0.5,0-0.9,0.4-0.9,0.9l0,0c0,0.5,0.4,0.9,0.9,0.9h1.1c1.6,0,3,1.3,3,3v1.1c0,0.5,0.3,0.9,0.8,0.9c0.5,0,0.9-0.4,0.9-0.9
			v-1.1c0-1.6,1.3-3,3-3h1.1c0.5,0,0.9-0.4,0.9-0.9l0,0C622.9-770.6,622.5-770.9,622.1-770.9z"/>
		<path class="st2" d="M480.6-748.5h-1.1c-1.6,0-3-1.3-3-3v-1.1c0-0.5-0.4-0.9-0.8-0.9c-0.5,0-0.9,0.4-0.9,0.9v1.1c0,1.6-1.3,3-3,3
			h-1.1c-0.5,0-0.9,0.4-0.9,0.9l0,0c0,0.5,0.4,0.9,0.9,0.9h1.1c1.6,0,3,1.3,3,3v1.1c0,0.5,0.3,0.9,0.8,0.9c0.5,0,0.9-0.4,0.9-0.9
			v-1.1c0-1.6,1.3-3,3-3h1.1c0.5,0,0.9-0.4,0.9-0.9l0,0C481.4-748.1,481-748.5,480.6-748.5z"/>
		<path class="st2" d="M733.2-859.6h-1.1c-1.6,0-3-1.3-3-3v-1.1c0-0.5-0.4-0.9-0.8-0.9c-0.5,0-0.9,0.4-0.9,0.9v1.1c0,1.6-1.3,3-3,3
			h-1.1c-0.5,0-0.9,0.4-0.9,0.9l0,0c0,0.5,0.4,0.9,0.9,0.9h1.1c1.6,0,3,1.3,3,3v1.1c0,0.5,0.3,0.9,0.8,0.9c0.5,0,0.9-0.4,0.9-0.9
			v-1.1c0-1.6,1.3-3,3-3h1.1c0.5,0,0.9-0.4,0.9-0.9l0,0C734.1-859.2,733.7-859.6,733.2-859.6z"/>
		<path class="st2" d="M173.6-788.9h-1.1c-1.6,0-3-1.3-3-3v-1.1c0-0.5-0.3-0.9-0.8-0.9c-0.5,0-0.9,0.4-0.9,0.9v1.1c0,1.6-1.3,3-3,3
			h-1.1c-0.5,0-0.9,0.4-0.9,0.9l0,0c0,0.5,0.4,0.9,0.9,0.9h1.1c1.6,0,3,1.3,3,3v1.1c0,0.5,0.3,0.9,0.8,0.9c0.5,0,0.9-0.4,0.9-0.9
			v-1.1c0-1.6,1.3-3,3-3h1.1c0.5,0,0.9-0.4,0.9-0.9l0,0C174.5-788.5,174.1-788.9,173.6-788.9z"/>
		<path class="st2" d="M378.8-761.5h-1.1c-1.6,0-3-1.3-3-3v-1.1c0-0.5-0.3-0.9-0.8-0.9c-0.5,0-0.9,0.4-0.9,0.9v1.1c0,1.6-1.3,3-3,3
			h-1.1c-0.5,0-0.9,0.4-0.9,0.9l0,0c0,0.5,0.4,0.9,0.9,0.9h1.1c1.6,0,3,1.3,3,3v1.1c0,0.5,0.3,0.9,0.8,0.9c0.5,0,0.9-0.4,0.9-0.9
			v-1.1c0-1.6,1.3-3,3-3h1.1c0.5,0,0.9-0.4,0.9-0.9l0,0C379.6-761.2,379.3-761.5,378.8-761.5z"/>
		<path class="st2" d="M209.9-760.1h-1.1c-1.6,0-3-1.3-3-3v-1.1c0-0.5-0.3-0.9-0.8-0.9c-0.5,0-0.9,0.4-0.9,0.9v1.1c0,1.6-1.3,3-3,3
			H200c-0.5,0-0.9,0.4-0.9,0.9l0,0c0,0.5,0.4,0.9,0.9,0.9h1.1c1.6,0,3,1.3,3,3v1.1c0,0.5,0.3,0.9,0.8,0.9c0.5,0,0.9-0.4,0.9-0.9
			v-1.1c0-1.6,1.3-3,3-3h1.1c0.5,0,0.9-0.4,0.9-0.9l0,0C210.8-759.7,210.4-760.1,209.9-760.1z"/>
	</g>
	<path class="st2" d="M802-711.5c-10.2-9.5-23.9-15.3-39-15.3c-4.1,0-8.1,0.4-11.9,1.2c-16.4-20.5-41.7-33.7-70-33.7
		c-33.9,0-63.4,18.8-78.6,46.6c-10.1-8.8-23.2-14.2-37.7-14.2c-20.4,0-38.3,10.7-48.5,26.8c-5.9-4-13-6.3-20.6-6.3
		c-9.1,0-17.5,3.3-23.9,8.9c-9.8-17.5-28.5-29.4-49.9-29.4c-9.5,0-18.4,2.3-26.3,6.4c-14.4-17-35.9-27.8-60-27.8
		c-29.2,0-54.7,16-68.3,39.7c-8.3-6.4-18.6-10.1-29.9-10.1c-4.6,0-9.1,0.6-13.3,1.8c-12.7-13.7-30.9-22.3-51-22.3
		c-19.8,0-37.7,8.3-50.4,21.7C107.7-739,82.8-753,54.6-753c-21,0-40.1,7.8-54.8,20.5L0.7,0h0v78.9c4.7,0.9,9.6,1.3,14.6,1.3
		c28.4,0,53.3-14.8,67.6-37c4.9,1.8,10.2,2.8,15.7,2.8c7.7,0,15-1.9,21.3-5.3c13.7,22.5,38.5,37.6,66.9,37.6
		c22.1,0,42-9.1,56.2-23.8c18.1,28.8,50.1,47.9,86.7,47.9c31.6,0,59.8-14.3,78.6-36.8c7.4,2.7,15.4,4.2,23.8,4.2
		c20,0,37.9-8.4,50.7-21.9c5.9,2.4,12.3,3.7,19.1,3.7c1.9,0,3.9-0.1,5.7-0.3c13.8,14.9,33.5,24.2,55.4,24.2
		c12.2,0,23.7-2.9,33.9-8.1c18.8,21.5,46.3,35,77,35c28.4,0,54.2-11.6,72.7-30.4c11.8,6.5,25.3,10.2,39.8,10.2
		c5.7,0,11.3-0.6,16.7-1.7v-51h0L802-711.5z"/>
	<g>
		<defs>
			
				<rect id="SVGID_1_" x="3.8" y="-894.3" transform="matrix(-1 -1.224647e-016 1.224647e-016 -1 805.0207 -1533.2253)" width="797.4" height="255.4"/>
		</defs>
		<clipPath id="SVGID_2_">
			<use xlink:href="#SVGID_1_"  style="overflow:visible;"/>
		</clipPath>
		<g class="st3">
			<g>
				<path class="st4" d="M549.4-833.4l-173.7-78.1c-2.3-1-5,0-6.1,2.3l-57.7,128.6c-1,2.3,0,5,2.3,6.1l173.7,78.1c2.3,1,5,0,6.1-2.3
					l57.7-128.6C552.8-829.7,551.8-832.4,549.4-833.4z"/>
				
					<rect x="428.9" y="-879.1" transform="matrix(0.9121 0.41 -0.41 0.9121 -291.6882 -247.757)" class="st5" width="5.8" height="150.2"/>
				
					<rect x="362" y="-898.6" transform="matrix(0.4096 -0.9122 0.9122 0.4096 988.3812 -80.7045)" class="st2" width="139.7" height="189.2"/>
				
					<rect x="430.4" y="-873.9" transform="matrix(0.9121 0.4101 -0.4101 0.9121 -291.7049 -247.7788)" class="st6" width="2.9" height="139.7"/>
				<path class="st7" d="M414-751.2l-10.3-4.6c-1.5-0.7-3.3,0-4,1.5c-0.7,1.5,0,3.3,1.5,4l10.3,4.6c1.5,0.7,3.3,0,4-1.5
					C416.2-748.7,415.5-750.5,414-751.2z"/>
				<path class="st7" d="M430-786.8l-10.3-4.6c-1.5-0.7-3.3,0-4,1.5c-0.7,1.5,0,3.3,1.5,4l10.3,4.6c1.5,0.7,3.3,0,4-1.5
					C432.2-784.3,431.5-786.1,430-786.8z"/>
				<path class="st7" d="M446-822.4l-10.3-4.6c-1.5-0.7-3.3,0-4,1.5c-0.7,1.5,0,3.3,1.5,4l10.3,4.6c1.5,0.7,3.3,0,4-1.5
					C448.2-819.9,447.5-821.7,446-822.4z"/>
				<path class="st7" d="M449.7-856.8l10.3,4.6c1.5,0.7,3.3,0,4-1.5c0.7-1.5,0-3.3-1.5-4l-10.3-4.6c-1.5-0.7-3.3,0-4,1.5
					C447.5-859.3,448.1-857.5,449.7-856.8z"/>
				
					<rect x="350.4" y="-821.2" transform="matrix(0.9121 0.41 -0.41 0.9121 -301.4794 -229.9611)" class="st8" width="70.1" height="6.6"/>
				
					<rect x="345" y="-809.2" transform="matrix(0.9121 0.41 -0.41 0.9121 -297.0287 -226.6936)" class="st8" width="70.1" height="6.6"/>
				
					<rect x="339.6" y="-797.2" transform="matrix(0.9121 0.41 -0.41 0.9121 -292.5786 -223.4265)" class="st8" width="70.1" height="6.6"/>
				
					<rect x="334.2" y="-785.2" transform="matrix(0.9121 0.41 -0.41 0.9121 -288.1274 -220.1582)" class="st8" width="70.1" height="6.6"/>
				
					<rect x="438" y="-781.8" transform="matrix(-0.9121 -0.41 0.41 -0.9121 1223.7209 -1294.6106)" class="st8" width="70.1" height="6.6"/>
				
					<rect x="432.6" y="-769.8" transform="matrix(-0.9121 -0.41 0.41 -0.9121 1208.484 -1273.8556)" class="st8" width="70.1" height="6.6"/>
				
					<rect x="443.4" y="-793.8" transform="matrix(-0.9121 -0.41 0.41 -0.9121 1238.959 -1315.3645)" class="st8" width="70.1" height="6.6"/>
				
					<rect x="448.8" y="-805.8" transform="matrix(-0.9121 -0.41 0.41 -0.9121 1254.198 -1336.1162)" class="st8" width="70.1" height="6.6"/>
				
					<rect x="454.2" y="-817.8" transform="matrix(-0.9121 -0.41 0.41 -0.9121 1269.4355 -1356.8702)" class="st8" width="70.1" height="6.6"/>
				
					<rect x="459.6" y="-829.9" transform="matrix(-0.9121 -0.41 0.41 -0.9121 1284.6713 -1377.6271)" class="st8" width="70.1" height="6.6"/>
				
					<rect x="428.4" y="-763.4" transform="matrix(-0.9121 -0.41 0.41 -0.9121 1171.6062 -1269.0026)" class="st8" width="42.7" height="6.6"/>
			</g>
			<g>
				<path class="st9" d="M600.7-810.4l101,68l75.7-112.6l-101-68c-2.8-1.9-6.6-1.1-8.5,1.7L599-818.9
					C597.1-816.1,597.9-812.3,600.7-810.4z"/>
				
					<ellipse transform="matrix(0.5533 -0.833 0.833 0.5533 1052.6188 265.034)" class="st9" cx="773.4" cy="-848.9" rx="7.2" ry="7.2"/>
				<g>
					<path class="st2" d="M665.9-912.5l5-7.5c0.7-1,2.1-1.3,3.1-0.6l101.5,68.4c1.7,1.2,2.6,3.1,2.5,5.1c-0.1,0.9-0.4,1.9-0.9,2.7
						c-0.3,0.4-0.6,0.8-0.9,1.1c-1.9,1.7-4.7,2-6.9,0.5c0,0,0,0,0,0L665.9-912.5z"/>
					<path class="st7" d="M665.9-912.5l3.5-5.1c0.7-1,2.1-1.3,3.1-0.6l105.6,71.1c-0.1,0.9-0.4,1.9-0.9,2.7
						c-0.3,0.4-0.6,0.8-0.9,1.1c-1.9,1.7-4.7,2-6.9,0.5c0,0,0,0,0,0L665.9-912.5z"/>
					<path class="st2" d="M665.9-912.5l1.1-1.7c0.7-1,2.1-1.3,3.1-0.6l106.1,71.4c-1.9,1.7-4.7,2-6.9,0.5c0,0,0,0,0,0L665.9-912.5z"
						/>
				</g>
				<path class="st10" d="M592.6-798.4l99.5,67L767.8-844l-99.5-67c-2.8-1.9-6.6-1.1-8.5,1.7L591-806.9
					C589.1-804.1,589.8-800.3,592.6-798.4z"/>
				
					<rect x="728.1" y="-855.5" transform="matrix(-0.8294 -0.5587 0.5587 -0.8294 1775.4113 -1033.1761)" class="st9" width="3.8" height="135.7"/>
				<path class="st10" d="M693.6-730.3c3.3,2.2,7.8,1.4,10-2l75.7-112.6c-2.2,3.3-6.7,4.2-10,2L693.6-730.3L693.6-730.3z"/>
				<path class="st2" d="M642.4-821.9c8.8-13.1,26.7-16.6,39.8-7.8c13.1,8.9,16.6,26.7,7.8,39.8c-8.8,13.1-26.7,16.6-39.8,7.8
					C637.1-790.9,633.6-808.8,642.4-821.9z"/>
				<path class="st2" d="M672.7-862.8l43.8,29.5c1.3,0.9,3,0.5,3.8-0.7c0.9-1.3,0.5-3-0.7-3.8l-43.8-29.5c-1.3-0.9-3-0.5-3.8,0.7
					C671.1-865.3,671.4-863.6,672.7-862.8z"/>
				<polygon class="st11" points="757.6,-868.3 761.1,-858.6 771.5,-859 765.7,-850.4 751.8,-859.7 				"/>
			</g>
			<g>
				<g>
					<g>
						
							<rect x="96.5" y="-906.9" transform="matrix(-0.752 0.6592 -0.6592 -0.752 -415.5016 -1649.2928)" class="st12" width="12" height="8.1"/>
						<path class="st13" d="M10.4-827.5l89.8-78.7l89.3,102l-93.4,81.9L10-820.7C8.3-822.7,8.5-825.7,10.4-827.5z"/>
						<path class="st14" d="M22.1-814.1l89.8-78.7l89.3,102l-89.8,78.7c-2,1.7-5,1.5-6.7-0.4l-83-94.8
							C20-809.3,20.2-812.4,22.1-814.1z"/>
						
							<rect x="155.2" y="-913.2" transform="matrix(-0.752 0.6592 -0.6592 -0.752 -275.7352 -1587.1315)" class="st15" width="11" height="135.6"/>
						
							<rect x="2.1" y="-867" transform="matrix(-0.752 0.6592 -0.6592 -0.752 -453.8816 -1549.8345)" class="st2" width="125" height="13.5"/>
						
							<rect x="2.1" y="-863.2" transform="matrix(-0.752 0.6592 -0.6592 -0.752 -453.8814 -1549.8342)" class="st7" width="125" height="5.8"/>
						
							<rect x="110.5" y="-914.2" transform="matrix(-0.7519 0.6592 -0.6592 -0.7519 -397.4158 -1658.1156)" class="st15" width="5.5" height="20.7"/>
						
							<rect x="89.9" y="-796.5" transform="matrix(-0.752 0.6592 -0.6592 -0.752 -287.7534 -1450.036)" class="st16" width="78.1" height="34.8"/>
						
							<rect x="101.9" y="-774.9" transform="matrix(-0.752 0.6592 -0.6592 -0.752 -274.5194 -1442.9497)" class="st7" width="64.6" height="3.5"/>
						
							<rect x="122.5" y="-790.6" transform="matrix(-0.752 0.6592 -0.6592 -0.752 -274.6924 -1474.4563)" class="st7" width="35" height="3.5"/>
						
							<rect x="91.3" y="-786.9" transform="matrix(-0.752 0.6592 -0.6592 -0.752 -300.9848 -1457.1238)" class="st7" width="64.6" height="3.5"/>
					</g>
				</g>
				
					<rect x="87.1" y="-851.2" transform="matrix(-0.752 0.6592 -0.6592 -0.752 -358.8309 -1431.7709)" class="st15" width="5.6" height="135.6"/>
				
					<rect x="88.8" y="-851.2" transform="matrix(0.7524 -0.6588 0.6588 0.7524 538.3425 -134.7585)" class="st8" width="2.3" height="135.6"/>
				
					<rect x="36.6" y="-850" transform="matrix(-0.752 0.6592 -0.6592 -0.752 -485.3297 -1499.5486)" class="st12" width="5.6" height="17.8"/>
				
					<rect x="38.3" y="-850" transform="matrix(0.7523 -0.6588 0.6588 0.7523 563.8374 -182.3195)" class="st15" width="2.3" height="17.8"/>
			</g>
			<g>
				<path class="st17" d="M761.3-769.8l7.8-13.1c0.2-0.4-0.2-0.8-0.6-0.6l-13.1,7.8L761.3-769.8z"/>
				
					<rect x="717.6" y="-787.9" transform="matrix(-0.7069 -0.7073 0.7073 -0.7069 1752.7928 -746.0383)" class="st18" width="8.4" height="103.4"/>
				
					<ellipse transform="matrix(0.7069 -0.7073 0.7073 0.7069 695.7287 279.6491)" class="st19" cx="685.3" cy="-699.6" rx="3" ry="4.2"/>
				
					<rect x="685.3" y="-709.7" transform="matrix(-0.7069 -0.7073 0.7073 -0.7069 1674.6384 -713.6385)" class="st19" width="8.4" height="11.8"/>
				<path class="st20" d="M698.4-712.7c-1.6-1.6-3.9-2-5.1-0.9l-8.9,8.9c1.2-1.2,3.4-0.8,5.1,0.9c1.6,1.6,2,3.9,0.9,5.1l8.9-8.9
					C700.4-708.8,700-711.1,698.4-712.7z"/>
				<path class="st15" d="M765.3-779.7c0.4,0.4,0.8,0.9,1,1.4l2.8-4.7c0.2-0.4-0.2-0.8-0.6-0.6l-4.7,2.8
					C764.4-780.5,764.8-780.1,765.3-779.7z"/>
			</g>
			<g>
				<path class="st17" d="M23.7-755.9l-14.3-5.5c-0.4-0.2-0.8,0.3-0.5,0.7l9.9,11.6L23.7-755.9z"/>
				
					<rect x="59.3" y="-774.3" transform="matrix(-0.5761 0.8174 -0.8174 -0.5761 -490.5988 -1190.827)" class="st18" width="8.4" height="103.4"/>
				
					<ellipse transform="matrix(0.5765 -0.8171 0.8171 0.5765 610.8812 -207.0013)" class="st19" cx="105.7" cy="-692.8" rx="4.2" ry="3"/>
				
					<rect x="96.7" y="-702.1" transform="matrix(-0.5761 0.8174 -0.8174 -0.5761 -410.0528 -1179.819)" class="st19" width="8.4" height="11.8"/>
				<path class="st20" d="M90.6-703.5c-1.3,1.9-1.3,4.2,0,5.1l10.3,7.3c-1.3-0.9-1.3-3.2,0-5.1c1.3-1.9,3.5-2.6,4.8-1.7l-10.3-7.3
					C94.1-706.2,91.9-705.4,90.6-703.5z"/>
				<path class="st15" d="M13.3-758.1c0.4-0.5,0.8-0.9,1.2-1.3l-5.1-1.9c-0.4-0.2-0.8,0.3-0.5,0.7l3.5,4.1
					C12.6-757,12.9-757.6,13.3-758.1z"/>
			</g>
			<g>
				<path class="st15" d="M224.7-793.9l-13.6-8.6c-0.4-0.3-0.9,0.2-0.6,0.7l8.1,14.5L224.7-793.9z"/>
				<polygon class="st15" points="218.5,-787.3 224.7,-793.9 300.5,-713 294.4,-706.5 				"/>
				<path class="st15" d="M299.6-707.4c1.7-1.8,2.1-4.3,0.9-5.6s-3.6-0.9-5.2,0.9c-1.7,1.8-2.1,4.3-0.9,5.6
					C295.6-705.2,297.9-705.6,299.6-707.4z"/>
				<polygon class="st15" points="285.7,-715.7 291.8,-722.3 300.5,-713 294.4,-706.5 				"/>
				<path class="st20" d="M290.9-716.7c-1.7,1.8-2.1,4.3-0.9,5.6l2.2,2.3c-1.2-1.3-0.8-3.8,0.9-5.6c1.7-1.8,4-2.2,5.2-0.9l-2.2-2.3
					C295-718.9,292.6-718.5,290.9-716.7z"/>
				<path class="st8" d="M223.4-788.7c-1.7,1.8-2.1,4.3-0.9,5.6l2.2,2.3c-1.2-1.3-0.8-3.8,0.9-5.6c1.7-1.8,4-2.2,5.2-0.9l-2.2-2.3
					C227.4-790.9,225.1-790.5,223.4-788.7z"/>
				<path class="st7" d="M211.8-799.3l-1.4-2.5c-0.2-0.4,0.2-0.9,0.6-0.7l2.4,1.5c-0.3,0.2-0.6,0.5-0.9,0.8
					C212.3-799.9,212-799.6,211.8-799.3z"/>
			</g>
			<g>
				<path class="st21" d="M332.3-948.5l-125.8,77.6L284.1-745L332.3-948.5z M243.9-862l47-29l-18,76L243.9-862z"/>
				
					<rect x="313.4" y="-937.3" transform="matrix(-0.851 0.5252 -0.5252 -0.851 92.923 -1894.2397)" class="st15" width="3.7" height="6.8"/>
				
					<rect x="300" y="-929.1" transform="matrix(-0.851 0.5252 -0.5252 -0.851 72.5478 -1871.9622)" class="st15" width="3.7" height="6.8"/>
				
					<rect x="286.6" y="-920.8" transform="matrix(-0.851 0.5252 -0.5252 -0.851 52.1456 -1849.6786)" class="st15" width="3.7" height="6.8"/>
				
					<rect x="273.3" y="-912.6" transform="matrix(-0.8509 0.5252 -0.5252 -0.8509 31.6925 -1827.3815)" class="st15" width="3.7" height="6.8"/>
				
					<rect x="259.9" y="-904.3" transform="matrix(-0.851 0.5252 -0.5252 -0.851 11.3484 -1805.1133)" class="st15" width="3.7" height="6.8"/>
				
					<rect x="246.6" y="-896.1" transform="matrix(-0.851 0.5252 -0.5252 -0.851 -9.0787 -1782.8226)" class="st15" width="3.7" height="6.8"/>
				
					<rect x="233.2" y="-887.8" transform="matrix(-0.851 0.5252 -0.5252 -0.851 -29.449 -1760.5486)" class="st15" width="3.7" height="6.8"/>
				
					<rect x="219.8" y="-879.6" transform="matrix(-0.8509 0.5252 -0.5252 -0.8509 -49.9153 -1738.2449)" class="st15" width="3.7" height="6.8"/>
				
					<rect x="273.5" y="-769.1" transform="matrix(-0.5247 -0.8513 0.8513 -0.5247 1071.6691 -933.0865)" class="st15" width="3.7" height="6.8"/>
				
					<rect x="265.3" y="-782.5" transform="matrix(-0.5248 -0.8512 0.8512 -0.5248 1070.4786 -960.5104)" class="st15" width="3.7" height="6.8"/>
				
					<rect x="257" y="-795.8" transform="matrix(-0.5247 -0.8513 0.8513 -0.5247 1069.3041 -987.8657)" class="st15" width="3.7" height="6.8"/>
				
					<rect x="248.8" y="-809.2" transform="matrix(-0.5247 -0.8513 0.8513 -0.5247 1068.1116 -1015.2965)" class="st15" width="3.7" height="6.8"/>
				
					<rect x="240.6" y="-822.6" transform="matrix(-0.5247 -0.8513 0.8513 -0.5247 1066.9258 -1042.7)" class="st15" width="3.7" height="6.8"/>
				
					<rect x="232.3" y="-835.9" transform="matrix(-0.5247 -0.8513 0.8513 -0.5247 1065.74 -1070.1035)" class="st15" width="3.7" height="6.8"/>
				
					<rect x="224.1" y="-849.3" transform="matrix(-0.5248 -0.8512 0.8512 -0.5248 1064.5476 -1097.528)" class="st15" width="3.7" height="6.8"/>
				
					<rect x="215.8" y="-862.7" transform="matrix(-0.5247 -0.8513 0.8513 -0.5247 1063.3712 -1124.9004)" class="st15" width="3.7" height="6.8"/>
			</g>
			<g>
				<path class="st22" d="M515.4-817.1c-8.9-19.7,0.2-43.1,20.4-52.3c20.2-9.2,43.8-0.6,52.7,19.1c8.9,19.7-0.2,43.1-20.4,52.3
					C548-788.9,524.3-797.4,515.4-817.1z"/>
				
					<rect x="555.1" y="-837.8" transform="matrix(-0.9107 0.4131 -0.4131 -0.9107 757.1732 -1755.3846)" class="st22" width="26.5" height="83.9"/>
				<path class="st23" d="M585.4-833c0.2-4.9-0.8-9.9-2.9-14.6c-7.6-16.8-27.8-24.2-45.1-16.3c-17.2,7.8-25,27.9-17.4,44.7
					c2.1,4.7,5.2,8.6,9,11.8L585.4-833z"/>
				<path class="st22" d="M574.8-746.1l26.4-12c1.1-0.5,1.6-1.8,1.1-2.9l-0.7-1.5c-0.5-1.1-1.8-1.5-2.9-1l-26.4,12
					c-1.1,0.5-1.6,1.8-1.1,2.9l0.7,1.5C572.4-746.1,573.7-745.6,574.8-746.1z"/>
				
					<rect x="571.8" y="-760.4" transform="matrix(-0.9107 0.4131 -0.4131 -0.9107 804.3368 -1691.8136)" class="st24" width="26.5" height="2.9"/>
			</g>
		</g>
	</g>
	<g>
		<defs>
			<polygon id="SVGID_3_" points="802.9,236.6 0.7,236.6 -0.2,-16.3 802,-16.3 			"/>
		</defs>
		<clipPath id="SVGID_4_">
			<use xlink:href="#SVGID_3_"  style="overflow:visible;"/>
		</clipPath>
		<g class="st25">
			<g>
				<path class="st26" d="M863.4,222l-47.2-118.7l-132.1,52.6l46.3,118.7c1.3,3.3,5.1,4.9,8.4,3.6l121.1-47.8
					C863.1,229.1,864.7,225.3,863.4,222z"/>
				
					<ellipse transform="matrix(0.9268 -0.3755 0.3755 0.9268 -6.9169 270.6888)" class="st26" cx="691.1" cy="153.1" rx="7.6" ry="7.6"/>
				<g>
					<path class="st0" d="M745.7,271.7l-8.8,3.5c-1.2,0.5-2.6-0.1-3.1-1.3l-46.5-119.3c-0.8-2-0.4-4.3,0.9-5.9
						c0.6-0.8,1.4-1.4,2.4-1.8c0.5-0.2,1-0.3,1.4-0.4c2.6-0.4,5.2,1.1,6.3,3.6c0,0,0,0,0,0L745.7,271.7z"/>
					<path class="st7" d="M745.7,271.7l-6,2.4c-1.2,0.5-2.6-0.1-3.1-1.3l-48.4-124.1c0.6-0.8,1.4-1.4,2.4-1.8c0.5-0.2,1-0.3,1.4-0.4
						c2.6-0.4,5.2,1.1,6.3,3.6c0,0,0,0,0,0L745.7,271.7z"/>
					<path class="st2" d="M745.7,271.7l-2,0.8c-1.2,0.5-2.6-0.1-3.1-1.3L692,146.6c2.6-0.4,5.2,1.1,6.3,3.6c0,0,0,0,0,0L745.7,271.7
						z"/>
				</g>
				<path class="st11" d="M877.5,216.4L831,99.5l-132.1,52.6L744.4,269c1.3,3.3,5.1,4.9,8.4,3.6l121.1-47.8
					C877.2,223.4,878.8,219.7,877.5,216.4z"/>
				
					<rect x="763" y="54.7" transform="matrix(0.3695 0.9292 -0.9292 0.3695 599.2359 -631.4733)" class="st27" width="4" height="142.2"/>
				<path class="st27" d="M830.3,97.7c-1.5-3.9-6-5.8-9.8-4.2L688.3,146c3.9-1.5,8.3,0.4,9.8,4.2L830.3,97.7L830.3,97.7z"/>
				<polygon class="st11" points="693.3,179.3 696,168.7 686.9,162.9 696.9,158.9 703.4,175.2 				"/>
			</g>
			<g>
				<g>
					<g>
						
							<rect x="399.3" y="271.6" transform="matrix(0.9432 0.3321 -0.3321 0.9432 114.958 -119.3906)" class="st12" width="14.8" height="10.1"/>
						<path class="st28" d="M545.2,330.7l-140.7-49.5l56.7-158.6l145.2,51.1l-55.1,154.1C550.4,330.3,547.7,331.6,545.2,330.7z"/>
						<path class="st18" d="M552.5,309.9l-140.7-49.5l56.7-158.6l140.7,49.5c2.5,0.9,3.8,3.6,2.9,6.1L558.6,307
							C557.7,309.5,555,310.8,552.5,309.9z"/>
						<polygon class="st15" points="411.8,260.3 398.9,255.8 455.6,97.2 468.5,101.7 						"/>
						
							<rect x="398.2" y="283.3" transform="matrix(0.9432 0.3322 -0.3322 0.9432 123.8916 -141.4399)" class="st2" width="155" height="16.7"/>
						
							<rect x="398.2" y="288.1" transform="matrix(0.9432 0.3322 -0.3322 0.9432 123.8916 -141.4399)" class="st7" width="155" height="7.3"/>
						
							<rect x="395.7" y="252.8" transform="matrix(0.9432 0.3322 -0.3322 0.9432 110.8819 -117.4842)" class="st15" width="6.8" height="25.7"/>
						
							<rect x="476.7" y="151.2" transform="matrix(0.9432 0.3322 -0.3322 0.9432 87.2094 -164.5991)" class="st16" width="96.8" height="43.1"/>
						
							<rect x="488.3" y="161.3" transform="matrix(0.9432 0.3322 -0.3322 0.9432 84.2802 -166.2273)" class="st7" width="80.1" height="4.3"/>
						
							<rect x="486.1" y="164.6" transform="matrix(0.9432 0.3322 -0.3322 0.9432 84.2038 -159.1986)" class="st7" width="43.4" height="4.3"/>
						
							<rect x="481.7" y="180" transform="matrix(0.9432 0.3322 -0.3322 0.9432 90.1382 -162.9701)" class="st7" width="80.1" height="4.3"/>
					</g>
				</g>
			</g>
			<g>
				<path class="st21" d="M360.3,336.7l32.2-151.8l-151.7-31.3L360.3,336.7z M358.9,207l-12.6,56.7l-44.1-68.4L358.9,207z"/>
				
					<rect x="359.6" y="309.6" transform="matrix(0.2016 -0.9795 0.9795 0.2016 -18.134 604.1088)" class="st15" width="3.9" height="7.1"/>
				
					<rect x="362.9" y="293.5" transform="matrix(0.2016 -0.9795 0.9795 0.2016 0.3098 594.4691)" class="st15" width="3.9" height="7.1"/>
				
					<rect x="366.2" y="277.4" transform="matrix(0.2016 -0.9795 0.9795 0.2016 18.7631 584.8421)" class="st15" width="3.9" height="7.1"/>
				
					<rect x="369.5" y="261.2" transform="matrix(0.2016 -0.9795 0.9795 0.2016 37.2167 575.215)" class="st15" width="3.9" height="7.1"/>
				<polygon class="st15" points="372.6,246 370.9,249.8 377.9,251.3 379.5,247.5 				"/>
				
					<rect x="377.1" y="229" transform="matrix(0.2017 -0.9795 0.9795 0.2017 74.823 556.8236)" class="st15" width="3.9" height="7.1"/>
				
					<rect x="380.4" y="212.8" transform="matrix(0.2016 -0.9795 0.9795 0.2016 93.2912 547.2106)" class="st15" width="3.9" height="7.1"/>
				
					<rect x="383.7" y="196.7" transform="matrix(0.2017 -0.9795 0.9795 0.2017 111.7402 537.58)" class="st15" width="3.9" height="7.1"/>
				
					<rect x="260.8" y="158.2" transform="matrix(0.9794 0.2019 -0.2019 0.9794 38.0665 -49.7145)" class="st15" width="3.9" height="7.1"/>
				
					<rect x="276.9" y="161.5" transform="matrix(0.9794 0.2019 -0.2019 0.9794 39.0657 -52.897)" class="st15" width="3.9" height="7.1"/>
				
					<rect x="293.1" y="164.9" transform="matrix(0.9794 0.2019 -0.2019 0.9794 40.0684 -56.0833)" class="st15" width="3.9" height="7.1"/>
				
					<rect x="309.2" y="168.2" transform="matrix(0.9794 0.2019 -0.2019 0.9794 41.0712 -59.2697)" class="st15" width="3.9" height="7.1"/>
				
					<rect x="325.3" y="171.5" transform="matrix(0.9794 0.2019 -0.2019 0.9794 42.0719 -62.4536)" class="st15" width="3.9" height="7.1"/>
				
					<rect x="341.4" y="174.8" transform="matrix(0.9794 0.2019 -0.2019 0.9794 43.0747 -65.6399)" class="st15" width="3.9" height="7.1"/>
				
					<rect x="357.6" y="178.1" transform="matrix(0.9794 0.2019 -0.2019 0.9794 44.0796 -68.8289)" class="st15" width="3.9" height="7.1"/>
				
					<rect x="373.7" y="181.5" transform="matrix(0.9794 0.2019 -0.2019 0.9794 45.0846 -72.0181)" class="st15" width="3.9" height="7.1"/>
			</g>
			<g>
				<g>
					<path class="st6" d="M56.3,218.6c-0.5,0.3-1.2,0.3-1.8,0.1c-1.2-0.4-1.9-1.8-1.5-3l61.7-182.3c0.4-1.2,1.8-1.9,3-1.5
						c1.2,0.4,1.9,1.8,1.5,3L57.5,217.3C57.3,217.9,56.8,218.4,56.3,218.6z"/>
				</g>
				<path class="st29" d="M171.2,92.7c20.1,40.8,3.4,90.2-37.3,110.3c-40.8,20.1-90.1,3.4-110.3-37.4C3.4,124.9,20.2,75.5,60.9,55.3
					C101.7,35.2,151,51.9,171.2,92.7z"/>
				<path class="st30" d="M93.4,92.1l-5.6,2.8c-2.6,1.3-3.7,4.5-2.4,7.1c1.3,2.6,4.5,3.7,7.1,2.4l5.6-2.8c2.6-1.3,3.7-4.5,2.4-7.1
					C99.3,91.9,96.1,90.8,93.4,92.1z"/>
				<path class="st30" d="M171.2,92.7c2.8,5.6,4.9,11.4,6.3,17.3l-48,23.7c-2.6,1.3-5.8,0.2-7.1-2.4c-1.3-2.6-0.2-5.8,2.4-7.1l6-3
					c2.6-1.3,3.7-4.5,2.4-7.1c-1.3-2.6-4.5-3.7-7.1-2.4l-20.3,10c-2.6,1.3-5.8,0.2-7.1-2.4c-1.3-2.6-0.2-5.8,2.4-7.1l29.9-14.8
					c2.6-1.3,3.7-4.5,2.4-7.1c-1.3-2.6-4.5-3.7-7.1-2.4L115.6,93c-2.6,1.3-5.8,0.2-7.1-2.4c-1.3-2.6-0.2-5.8,2.4-7.1L136,71.1
					c2.6-1.3,3.7-4.5,2.4-7.1c-1.3-2.6-4.5-3.7-7.1-2.4l-14.7,7.3c-2.6,1.3-5.8,0.2-7.1-2.4c-1.3-2.6-0.2-5.8,2.4-7.1l14.5-7.2
					C145.2,59.2,161.5,73.2,171.2,92.7z"/>
				<path class="st30" d="M178.1,145.3c-4.5,22.7-18.5,43.2-39.8,55.4l-1,0.5c-2.6,1.3-5.8,0.2-7.1-2.4c-1.3-2.6-0.2-5.8,2.4-7.1
					l13-6.4c2.6-1.3,3.7-4.5,2.4-7.1c-1.3-2.6-4.5-3.7-7.1-2.4l-4.6,2.3c-2.6,1.3-5.8,0.2-7.1-2.4c-1.3-2.6-0.2-5.8,2.4-7.1l3.7-1.8
					c2.6-1.3,3.7-4.5,2.4-7.1c-1.3-2.6-4.5-3.7-7.1-2.4l-17.2,8.5c-2.6,1.3-5.8,0.2-7.1-2.4c-1.3-2.6-0.2-5.8,2.4-7.1l39.3-19.4
					c2.6-1.3,5.8-0.2,7.1,2.4c1.3,2.6,0.2,5.8-2.4,7.1l-2.7,1.3c-2.6,1.3-3.7,4.5-2.4,7.1c1.3,2.6,4.5,3.7,7.1,2.4L178.1,145.3z"/>
				<path class="st30" d="M179.3,121c0.4,3.9,0.5,7.8,0.3,11.7l-5.8,2.9c-2.6,1.3-5.8,0.2-7.1-2.4c-1.3-2.6-0.2-5.8,2.4-7.1
					L179.3,121z"/>
				<path class="st30" d="M96.4,185.7l-13.7,6.8c-2.6,1.3-3.7,4.5-2.4,7.1c1.3,2.6,4.5,3.7,7.1,2.4l13.7-6.8
					c2.6-1.3,3.7-4.5,2.4-7.1C102.2,185.5,99,184.4,96.4,185.7z"/>
				<path class="st30" d="M35.1,126.9l-19.7,9.7c-1.2-13.2,0.9-26.4,5.8-38.5l12.6-6.3c1.3-0.7,2.8-0.7,4.1-0.3
					c1.3,0.4,2.4,1.4,3.1,2.7c1.3,2.6,0.2,5.8-2.4,7.1l-13.9,6.9c-1.3,0.7-2.2,1.8-2.7,3.1c-0.4,1.3-0.4,2.7,0.3,4.1
					c1.3,2.6,4.5,3.7,7.1,2.4l1.1-0.5c1.3-0.7,2.8-0.7,4.1-0.3c1.3,0.4,2.4,1.4,3.1,2.7C38.8,122.4,37.7,125.6,35.1,126.9z"/>
				<path class="st30" d="M70.1,127.4c1.3,2.6,0.2,5.8-2.4,7.1l-20,9.9c-1.3,0.7-2.2,1.8-2.7,3.1c-0.4,1.3-0.4,2.7,0.3,4.1
					c1.3,2.6,4.5,3.7,7.1,2.4l5.7-2.8c1.3-0.7,2.8-0.7,4.1-0.3c1.3,0.4,2.4,1.4,3.1,2.7c1.3,2.6,0.2,5.8-2.4,7.1l-32.5,16.1
					c-2.5-3.5-4.7-7.2-6.6-11.1c-2.9-5.9-5-11.9-6.4-18.1L62.9,125C65.6,123.7,68.8,124.8,70.1,127.4z"/>
				<path class="st15" d="M188.5,84.2c-17.1-34.7-53.2-57-91.9-56.7c-2.6,0-4.7,2.2-4.7,4.8c0,2.6,2.2,4.7,4.8,4.7
					c35.1-0.3,67.8,19.9,83.3,51.4c22.5,45.6,3.8,101-41.8,123.5c-31.9,15.8-69.3,12-97.4-9.9c-2.1-1.6-5-1.2-6.6,0.8
					c-1.6,2.1-1.2,5,0.8,6.7c29.8,23.1,68.9,27.8,103.1,12.8l19.5,41.4L132.9,276c-2.3,1.2-3.3,4-2.1,6.3c1.2,2.3,4,3.3,6.3,2.1
					l58-28.7c2.3-1.2,3.3-4,2.1-6.3c-1.2-2.3-3.1-3.3-5.5-2.1l-25.6,12.2l-19.5-41.3C193.8,192.1,212.6,133,188.5,84.2z"/>
			</g>
			<g>
				<path class="st17" d="M662.3,201l10.6,11.1c0.3,0.3,0.9,0,0.7-0.4l-4-14.8L662.3,201z"/>
				
					<rect x="636.1" y="101.6" transform="matrix(0.8699 -0.4933 0.4933 0.8699 7.5383 335.8265)" class="st18" width="8.4" height="104"/>
				
					<ellipse transform="matrix(0.8701 -0.4928 0.4928 0.8701 26.421 316.9965)" class="st19" cx="614.7" cy="108.4" rx="4.2" ry="3"/>
				
					<rect x="613.4" y="107.6" transform="matrix(0.8699 -0.4932 0.4932 0.8699 24.3559 319.4068)" class="st19" width="8.4" height="11.9"/>
				<path class="st20" d="M623.9,124.6c2-1.1,3-3.2,2.2-4.7l-6.2-11c0.8,1.4-0.2,3.5-2.2,4.7c-2,1.1-4.3,0.9-5.1-0.5l6.2,11
					C619.6,125.5,621.9,125.7,623.9,124.6z"/>
				<path class="st15" d="M670.8,207.5c-0.6,0.3-1.1,0.5-1.7,0.6l3.8,4c0.3,0.3,0.9,0,0.7-0.4l-1.4-5.3
					C671.8,206.8,671.4,207.2,670.8,207.5z"/>
			</g>
			<g>
				<path class="st17" d="M239.9,184.6l-5.5-14.3c-0.2-0.4-0.8-0.3-0.8,0.1l-2,15.2L239.9,184.6z"/>
				<polygon class="st18" points="231.6,185.5 239.9,184.6 251.1,287.9 242.8,288.9 				"/>
				<ellipse transform="matrix(0.9932 -0.1161 0.1161 0.9932 -31.8241 30.636)" class="st19" cx="247" cy="288.4" rx="4.2" ry="3"/>
				
					<rect x="242.1" y="276.5" transform="matrix(-0.9932 0.1163 -0.1163 -0.9932 523.7219 534.4146)" class="st19" width="8.4" height="11.9"/>
				<path class="st20" d="M244.8,269.9c-2.3,0.3-4,1.8-3.8,3.5l1.5,12.6c-0.2-1.6,1.5-3.2,3.8-3.5c2.3-0.3,4.3,0.8,4.5,2.5
					l-1.5-12.6C249.1,270.7,247.1,269.6,244.8,269.9z"/>
				<path class="st15" d="M234.6,175.3c0.6-0.1,1.2,0,1.8,0.1l-2-5.1c-0.2-0.4-0.8-0.3-0.8,0.1l-0.7,5.4
					C233.4,175.5,234,175.3,234.6,175.3z"/>
			</g>
			<g>
				<path class="st17" d="M298.5,133.2l-14,6.4c-0.4,0.2-0.3,0.8,0.2,0.8l15.3,1.1L298.5,133.2z"/>
				
					<rect x="346.2" y="76.1" transform="matrix(0.1779 0.984 -0.984 0.1779 414.0259 -239.5118)" class="st18" width="8.4" height="104"/>
				
					<ellipse transform="matrix(0.984 -0.1781 0.1781 0.984 -14.7375 73.4222)" class="st19" cx="401.5" cy="118.8" rx="3" ry="4.2"/>
				
					<rect x="391.5" y="113.9" transform="matrix(0.1779 0.984 -0.984 0.1779 443.2125 -290.8457)" class="st19" width="8.4" height="11.9"/>
				<path class="st20" d="M383.2,122.1c0.4,2.3,2.1,3.9,3.7,3.6l12.5-2.3c-1.6,0.3-3.3-1.3-3.7-3.6c-0.4-2.3,0.6-4.4,2.2-4.7
					l-12.5,2.3C383.7,117.7,382.8,119.8,383.2,122.1z"/>
				<path class="st15" d="M289.5,139.1c-0.1-0.6-0.1-1.2,0-1.8l-5,2.3c-0.4,0.2-0.3,0.8,0.2,0.8l5.5,0.4
					C289.8,140.3,289.6,139.7,289.5,139.1z"/>
			</g>
		</g>
	</g>
	<g>
		<path class="st2" d="M192.9,219.7h2c2.9,0,5.2,2.3,5.2,5.2v1.9c0,0.8,0.6,1.5,1.4,1.6c0.9,0,1.6-0.6,1.6-1.5v-2
			c0-2.9,2.3-5.2,5.2-5.2h2c0.8,0,1.5-0.7,1.5-1.5l0,0c0-0.8-0.7-1.5-1.5-1.5h-2c-2.9,0-5.2-2.3-5.2-5.2v-1.9c0-0.8-0.6-1.5-1.4-1.6
			c-0.9,0-1.6,0.6-1.6,1.5v2c0,2.9-2.3,5.2-5.2,5.2h-2c-0.8,0-1.5,0.7-1.5,1.5l0,0C191.4,219,192.1,219.7,192.9,219.7z"/>
		<path class="st2" d="M511.8,95.9h2c2.9,0,5.2,2.3,5.2,5.2v1.9c0,0.8,0.6,1.5,1.4,1.6c0.9,0,1.6-0.6,1.6-1.5v-2
			c0-2.9,2.3-5.2,5.2-5.2h2c0.8,0,1.5-0.7,1.5-1.5l0,0c0-0.8-0.7-1.5-1.5-1.5h-2c-2.9,0-5.2-2.3-5.2-5.2v-1.9c0-0.8-0.6-1.5-1.4-1.6
			c-0.9,0-1.6,0.6-1.6,1.5v2c0,2.9-2.3,5.2-5.2,5.2h-2c-0.8,0-1.5,0.7-1.5,1.5l0,0C510.3,95.2,510.9,95.9,511.8,95.9z"/>
		<path class="st2" d="M324.6,148.4h2c2.9,0,5.2,2.3,5.2,5.2v1.9c0,0.8,0.6,1.5,1.4,1.6c0.9,0,1.6-0.6,1.6-1.5v-2
			c0-2.9,2.3-5.2,5.2-5.2h2c0.8,0,1.5-0.7,1.5-1.5l0,0c0-0.8-0.7-1.5-1.5-1.5h-2c-2.9,0-5.2-2.3-5.2-5.2v-1.9c0-0.8-0.6-1.5-1.4-1.6
			c-0.9,0-1.6,0.6-1.6,1.5v2c0,2.9-2.3,5.2-5.2,5.2h-2c-0.8,0-1.5,0.7-1.5,1.5l0,0C323.1,147.7,323.8,148.4,324.6,148.4z"/>
		<path class="st2" d="M383.6,155.3h1.1c1.6,0,3,1.3,3,3v1.1c0,0.5,0.3,0.9,0.8,0.9c0.5,0,0.9-0.4,0.9-0.9v-1.1c0-1.6,1.3-3,3-3h1.1
			c0.5,0,0.9-0.4,0.9-0.9l0,0c0-0.5-0.4-0.9-0.9-0.9h-1.1c-1.6,0-3-1.3-3-3v-1.1c0-0.5-0.3-0.9-0.8-0.9c-0.5,0-0.9,0.4-0.9,0.9v1.1
			c0,1.6-1.3,3-3,3h-1.1c-0.5,0-0.9,0.4-0.9,0.9l0,0C382.8,154.9,383.2,155.3,383.6,155.3z"/>
		<path class="st2" d="M752.2,89.9h1.1c1.6,0,3,1.3,3,3V94c0,0.5,0.3,0.9,0.8,0.9c0.5,0,0.9-0.4,0.9-0.9v-1.1c0-1.6,1.3-3,3-3h1.1
			c0.5,0,0.9-0.4,0.9-0.9l0,0c0-0.5-0.4-0.9-0.9-0.9H761c-1.6,0-3-1.3-3-3v-1.1c0-0.5-0.3-0.9-0.8-0.9c-0.5,0-0.9,0.4-0.9,0.9v1.1
			c0,1.6-1.3,3-3,3h-1.1c-0.5,0-0.9,0.4-0.9,0.9l0,0C751.3,89.5,751.7,89.9,752.2,89.9z"/>
		<path class="st2" d="M623.2,219.1h1.1c1.6,0,3,1.3,3,3v1.1c0,0.5,0.3,0.9,0.8,0.9c0.5,0,0.9-0.4,0.9-0.9V222c0-1.6,1.3-3,3-3h1.1
			c0.5,0,0.9-0.4,0.9-0.9l0,0c0-0.5-0.4-0.9-0.9-0.9H632c-1.6,0-3-1.3-3-3v-1.1c0-0.5-0.3-0.9-0.8-0.9c-0.5,0-0.9,0.4-0.9,0.9v1.1
			c0,1.6-1.3,3-3,3h-1.1c-0.5,0-0.9,0.4-0.9,0.9l0,0C622.4,218.7,622.8,219.1,623.2,219.1z"/>
		<path class="st2" d="M233.6,106.8h1.1c1.6,0,3,1.3,3,3v1.1c0,0.5,0.4,0.9,0.8,0.9c0.5,0,0.9-0.4,0.9-0.9v-1.1c0-1.6,1.3-3,3-3h1.1
			c0.5,0,0.9-0.4,0.9-0.9l0,0c0-0.5-0.4-0.9-0.9-0.9h-1.1c-1.6,0-3-1.3-3-3V101c0-0.5-0.3-0.9-0.8-0.9c-0.5,0-0.9,0.4-0.9,0.9v1.1
			c0,1.6-1.3,3-3,3h-1.1c-0.5,0-0.9,0.4-0.9,0.9l0,0C232.8,106.4,233.2,106.8,233.6,106.8z"/>
		<path class="st2" d="M12.4,187h1.1c1.6,0,3,1.3,3,3v1.1c0,0.5,0.4,0.9,0.8,0.9c0.5,0,0.9-0.4,0.9-0.9V190c0-1.6,1.3-3,3-3h1.1
			c0.5,0,0.9-0.4,0.9-0.9l0,0c0-0.5-0.4-0.9-0.9-0.9h-1.1c-1.6,0-3-1.3-3-3v-1.1c0-0.5-0.3-0.9-0.8-0.9c-0.5,0-0.9,0.4-0.9,0.9v1.1
			c0,1.6-1.3,3-3,3h-1.1c-0.5,0-0.9,0.4-0.9,0.9l0,0C11.5,186.6,11.9,187,12.4,187z"/>
		<path class="st2" d="M322.1,86.7h1.1c1.6,0,3,1.3,3,3v1.1c0,0.5,0.4,0.9,0.8,0.9c0.5,0,0.9-0.4,0.9-0.9v-1.1c0-1.6,1.3-3,3-3h1.1
			c0.5,0,0.9-0.4,0.9-0.9l0,0c0-0.5-0.4-0.9-0.9-0.9h-1.1c-1.6,0-3-1.3-3-3V81c0-0.5-0.3-0.9-0.8-0.9c-0.5,0-0.9,0.4-0.9,0.9V82
			c0,1.6-1.3,3-3,3h-1.1c-0.5,0-0.9,0.4-0.9,0.9l0,0C321.2,86.3,321.6,86.7,322.1,86.7z"/>
		<path class="st2" d="M201.7,143.2h1.1c1.6,0,3,1.3,3,3v1.1c0,0.5,0.4,0.9,0.8,0.9c0.5,0,0.9-0.4,0.9-0.9v-1.1c0-1.6,1.3-3,3-3h1.1
			c0.5,0,0.9-0.4,0.9-0.9l0,0c0-0.5-0.4-0.9-0.9-0.9h-1.1c-1.6,0-3-1.3-3-3v-1.1c0-0.5-0.4-0.9-0.8-0.9c-0.5,0-0.9,0.4-0.9,0.9v1.1
			c0,1.6-1.3,3-3,3h-1.1c-0.5,0-0.9,0.4-0.9,0.9l0,0C200.8,142.8,201.2,143.2,201.7,143.2z"/>
		<path class="st2" d="M662.6,129.3h1.1c1.6,0,3,1.3,3,3v1.1c0,0.5,0.3,0.9,0.8,0.9c0.5,0,0.9-0.4,0.9-0.9v-1.1c0-1.6,1.3-3,3-3h1.1
			c0.5,0,0.9-0.4,0.9-0.9l0,0c0-0.5-0.4-0.9-0.9-0.9h-1.1c-1.6,0-3-1.3-3-3v-1.1c0-0.5-0.3-0.9-0.8-0.9c-0.5,0-0.9,0.4-0.9,0.9v1.1
			c0,1.6-1.3,3-3,3h-1.1c-0.5,0-0.9,0.4-0.9,0.9l0,0C661.7,128.9,662.1,129.3,662.6,129.3z"/>
		<path class="st2" d="M423.9,99.8h1.1c1.6,0,3,1.3,3,3v1.1c0,0.5,0.3,0.9,0.8,0.9c0.5,0,0.9-0.4,0.9-0.9v-1.1c0-1.6,1.3-3,3-3h1.1
			c0.5,0,0.9-0.4,0.9-0.9l0,0c0-0.5-0.4-0.9-0.9-0.9h-1.1c-1.6,0-3-1.3-3-3V94c0-0.5-0.3-0.9-0.8-0.9c-0.5,0-0.9,0.4-0.9,0.9v1.1
			c0,1.6-1.3,3-3,3h-1.1c-0.5,0-0.9,0.4-0.9,0.9l0,0C423,99.4,423.4,99.8,423.9,99.8z"/>
		<path class="st2" d="M592.7,98.4h1.1c1.6,0,3,1.3,3,3v1.1c0,0.5,0.3,0.9,0.8,0.9c0.5,0,0.9-0.4,0.9-0.9v-1.1c0-1.6,1.3-3,3-3h1.1
			c0.5,0,0.9-0.4,0.9-0.9l0,0c0-0.5-0.4-0.9-0.9-0.9h-1.1c-1.6,0-3-1.3-3-3v-1.1c0-0.5-0.3-0.9-0.8-0.9c-0.5,0-0.9,0.4-0.9,0.9v1.1
			c0,1.6-1.3,3-3,3h-1.1c-0.5,0-0.9,0.4-0.9,0.9l0,0C591.9,98,592.3,98.4,592.7,98.4z"/>
	</g>
	<g>
		<rect x="101.9" y="-554.7" class="st15" width="597.9" height="0.7"/>
	</g>
</g>
<rect x="-192.7" y="-744.2" class="st31" width="177.8" height="43.2"/>
<rect x="-322.9" y="-639.2" class="st32" width="434.6" height="296.3"/>
</svg>
