<?xml version="1.0" encoding="utf-8"?>
<!-- Generator: Adobe Illustrator 19.2.1, SVG Export Plug-In . SVG Version: 6.00 Build 0)  -->
<svg version="1.1" id="Layer_1" xmlns="http://www.w3.org/2000/svg" xmlns:xlink="http://www.w3.org/1999/xlink" x="0px" y="0px"
	 viewBox="0 0 800 211.7" style="enable-background:new 0 0 800 211.7;" xml:space="preserve">
<style type="text/css">
	.st0{fill:#FFCC80;}
	.st1{fill:#80DEEA;}
	.st2{fill:#FAFAFA;}
	.st3{clip-path:url(#SVGID_2_);}
	.st4{fill:#FF8A65;}
	.st5{fill:#FF7043;}
	.st6{fill:#E0E0E0;}
	.st7{fill:#BDBDBD;}
	.st8{fill:#616161;}
	.st9{fill:#FCB316;}
	.st10{fill:#FFD54E;}
	.st11{fill:#E53935;}
	.st12{fill:#212121;}
	.st13{fill:#43A047;}
	.st14{fill:#81C784;}
	.st15{fill:#434343;}
	.st16{fill:#F5F5F5;}
	.st17{fill:#FFE0B2;}
	.st18{fill:#FFCA28;}
	.st19{fill:#EF5350;}
	.st20{fill:#EEEEEE;}
	.st21{fill:#FFB74D;}
	.st22{fill:#E1F5FE;}
	.st23{fill:#4DB6AC;}
	.st24{fill:#B3E5FC;}
	.st25{clip-path:url(#SVGID_4_);}
	.st26{fill:#C62828;}
	.st27{fill:#D32F2F;}
	.st28{fill:#FFA000;}
	.st29{fill:#039BE5;}
	.st30{fill:#317E3D;}
	.st31{fill:#DDA254;}
	.st32{fill:none;stroke:#FFCE8D;stroke-miterlimit:10;}
</style>
<rect x="-504" y="-71.3" class="st0" width="800" height="800"/>
<g>
</g>
<g>
	<rect x="-1.1" y="-1.8" class="st1" width="802.2" height="1134.5"/>
	<g>
		<path class="st2" d="M609.6,15.3h-2c-2.9,0-5.2-2.3-5.2-5.2V8.3c0-0.8-0.6-1.5-1.4-1.6c-0.9,0-1.6,0.6-1.6,1.5v2
			c0,2.9-2.3,5.2-5.2,5.2h-2c-0.8,0-1.5,0.7-1.5,1.5l0,0c0,0.8,0.7,1.5,1.5,1.5h2c2.9,0,5.2,2.3,5.2,5.2v1.9c0,0.8,0.6,1.5,1.4,1.6
			c0.9,0,1.6-0.6,1.6-1.5v-2c0-2.9,2.3-5.2,5.2-5.2h2c0.8,0,1.5-0.7,1.5-1.5l0,0C611.1,16,610.4,15.3,609.6,15.3z"/>
		<path class="st2" d="M318.3,95.5h-2c-2.9,0-5.2-2.3-5.2-5.2v-1.9c0-0.8-0.6-1.5-1.4-1.6c-0.9,0-1.6,0.6-1.6,1.5v2
			c0,2.9-2.3,5.2-5.2,5.2h-2c-0.8,0-1.5,0.7-1.5,1.5l0,0c0,0.8,0.7,1.5,1.5,1.5h2c2.9,0,5.2,2.3,5.2,5.2v1.9c0,0.8,0.6,1.5,1.4,1.6
			c0.9,0,1.6-0.6,1.6-1.5v-2c0-2.9,2.3-5.2,5.2-5.2h2c0.8,0,1.5-0.7,1.5-1.5l0,0C319.8,96.2,319.1,95.5,318.3,95.5z"/>
		<path class="st2" d="M494.2,107.2h-2c-2.9,0-5.2-2.3-5.2-5.2v-1.9c0-0.8-0.6-1.5-1.4-1.6c-0.9,0-1.6,0.6-1.6,1.5v2
			c0,2.9-2.3,5.2-5.2,5.2h-2c-0.8,0-1.5,0.7-1.5,1.5l0,0c0,0.8,0.7,1.5,1.5,1.5h2c2.9,0,5.2,2.3,5.2,5.2v1.9c0,0.8,0.6,1.5,1.4,1.6
			c0.9,0,1.6-0.6,1.6-1.5v-2c0-2.9,2.3-5.2,5.2-5.2h2c0.8,0,1.5-0.7,1.5-1.5l0,0C495.7,107.9,495,107.2,494.2,107.2z"/>
		<path class="st2" d="M668.3,74.5h-1.1c-1.6,0-3-1.3-3-3v-1.1c0-0.5-0.3-0.9-0.8-0.9c-0.5,0-0.9,0.4-0.9,0.9v1.1c0,1.6-1.3,3-3,3
			h-1.1c-0.5,0-0.9,0.4-0.9,0.9l0,0c0,0.5,0.4,0.9,0.9,0.9h1.1c1.6,0,3,1.3,3,3v1.1c0,0.5,0.3,0.9,0.8,0.9c0.5,0,0.9-0.4,0.9-0.9
			v-1.1c0-1.6,1.3-3,3-3h1.1c0.5,0,0.9-0.4,0.9-0.9l0,0C669.1,74.9,668.8,74.5,668.3,74.5z"/>
		<path class="st2" d="M36.7,106.3h-1.1c-1.6,0-3-1.3-3-3v-1.1c0-0.5-0.3-0.9-0.8-0.9c-0.5,0-0.9,0.4-0.9,0.9v1.1c0,1.6-1.3,3-3,3
			h-1.1c-0.5,0-0.9,0.4-0.9,0.9l0,0c0,0.5,0.4,0.9,0.9,0.9h1.1c1.6,0,3,1.3,3,3v1.1c0,0.5,0.3,0.9,0.8,0.9c0.5,0,0.9-0.4,0.9-0.9
			V111c0-1.6,1.3-3,3-3h1.1c0.5,0,0.9-0.4,0.9-0.9l0,0C37.6,106.7,37.2,106.3,36.7,106.3z"/>
		<path class="st2" d="M179.2,16h-1.1c-1.6,0-3-1.3-3-3v-1.1c0-0.5-0.4-0.9-0.8-0.9c-0.5,0-0.9,0.4-0.9,0.9V13c0,1.6-1.3,3-3,3h-1.1
			c-0.5,0-0.9,0.4-0.9,0.9l0,0c0,0.5,0.4,0.9,0.9,0.9h1.1c1.6,0,3,1.3,3,3v1.1c0,0.5,0.3,0.9,0.8,0.9c0.5,0,0.9-0.4,0.9-0.9v-1.1
			c0-1.6,1.3-3,3-3h1.1c0.5,0,0.9-0.4,0.9-0.9l0,0C180.1,16.3,179.7,16,179.2,16z"/>
		<path class="st2" d="M774.6,86h-1.1c-1.6,0-3-1.3-3-3V82c0-0.5-0.4-0.9-0.8-0.9c-0.5,0-0.9,0.4-0.9,0.9V83c0,1.6-1.3,3-3,3h-1.1
			c-0.5,0-0.9,0.4-0.9,0.9l0,0c0,0.5,0.4,0.9,0.9,0.9h1.1c1.6,0,3,1.3,3,3v1.1c0,0.5,0.4,0.9,0.8,0.9c0.5,0,0.9-0.4,0.9-0.9v-1.1
			c0-1.6,1.3-3,3-3h1.1c0.5,0,0.9-0.4,0.9-0.9l0,0C775.4,86.4,775.1,86,774.6,86z"/>
		<path class="st2" d="M621.9,125.7h-1.1c-1.6,0-3-1.3-3-3v-1.1c0-0.5-0.4-0.9-0.8-0.9c-0.5,0-0.9,0.4-0.9,0.9v1.1c0,1.6-1.3,3-3,3
			h-1.1c-0.5,0-0.9,0.4-0.9,0.9l0,0c0,0.5,0.4,0.9,0.9,0.9h1.1c1.6,0,3,1.3,3,3v1.1c0,0.5,0.3,0.9,0.8,0.9c0.5,0,0.9-0.4,0.9-0.9
			v-1.1c0-1.6,1.3-3,3-3h1.1c0.5,0,0.9-0.4,0.9-0.9l0,0C622.7,126.1,622.3,125.7,621.9,125.7z"/>
		<path class="st2" d="M480.4,148.2h-1.1c-1.6,0-3-1.3-3-3v-1.1c0-0.5-0.4-0.9-0.8-0.9c-0.5,0-0.9,0.4-0.9,0.9v1.1c0,1.6-1.3,3-3,3
			h-1.1c-0.5,0-0.9,0.4-0.9,0.9l0,0c0,0.5,0.4,0.9,0.9,0.9h1.1c1.6,0,3,1.3,3,3v1.1c0,0.5,0.3,0.9,0.8,0.9c0.5,0,0.9-0.4,0.9-0.9
			v-1.1c0-1.6,1.3-3,3-3h1.1c0.5,0,0.9-0.4,0.9-0.9l0,0C481.2,148.6,480.8,148.2,480.4,148.2z"/>
		<path class="st2" d="M733,37.1h-1.1c-1.6,0-3-1.3-3-3v-1.1c0-0.5-0.4-0.9-0.8-0.9c-0.5,0-0.9,0.4-0.9,0.9v1.1c0,1.6-1.3,3-3,3
			h-1.1c-0.5,0-0.9,0.4-0.9,0.9l0,0c0,0.5,0.4,0.9,0.9,0.9h1.1c1.6,0,3,1.3,3,3v1.1c0,0.5,0.3,0.9,0.8,0.9c0.5,0,0.9-0.4,0.9-0.9
			v-1.1c0-1.6,1.3-3,3-3h1.1c0.5,0,0.9-0.4,0.9-0.9l0,0C733.9,37.5,733.5,37.1,733,37.1z"/>
		<path class="st2" d="M173.4,107.8h-1.1c-1.6,0-3-1.3-3-3v-1.1c0-0.5-0.3-0.9-0.8-0.9c-0.5,0-0.9,0.4-0.9,0.9v1.1c0,1.6-1.3,3-3,3
			h-1.1c-0.5,0-0.9,0.4-0.9,0.9l0,0c0,0.5,0.4,0.9,0.9,0.9h1.1c1.6,0,3,1.3,3,3v1.1c0,0.5,0.3,0.9,0.8,0.9c0.5,0,0.9-0.4,0.9-0.9
			v-1.1c0-1.6,1.3-3,3-3h1.1c0.5,0,0.9-0.4,0.9-0.9l0,0C174.3,108.2,173.9,107.8,173.4,107.8z"/>
		<path class="st2" d="M378.6,135.1h-1.1c-1.6,0-3-1.3-3-3v-1.1c0-0.5-0.3-0.9-0.8-0.9c-0.5,0-0.9,0.4-0.9,0.9v1.1c0,1.6-1.3,3-3,3
			h-1.1c-0.5,0-0.9,0.4-0.9,0.9l0,0c0,0.5,0.4,0.9,0.9,0.9h1.1c1.6,0,3,1.3,3,3v1.1c0,0.5,0.3,0.9,0.8,0.9c0.5,0,0.9-0.4,0.9-0.9
			v-1.1c0-1.6,1.3-3,3-3h1.1c0.5,0,0.9-0.4,0.9-0.9l0,0C379.4,135.5,379,135.1,378.6,135.1z"/>
		<path class="st2" d="M209.7,136.6h-1.1c-1.6,0-3-1.3-3-3v-1.1c0-0.5-0.3-0.9-0.8-0.9c-0.5,0-0.9,0.4-0.9,0.9v1.1c0,1.6-1.3,3-3,3
			h-1.1c-0.5,0-0.9,0.4-0.9,0.9l0,0c0,0.5,0.4,0.9,0.9,0.9h1.1c1.6,0,3,1.3,3,3v1.1c0,0.5,0.3,0.9,0.8,0.9c0.5,0,0.9-0.4,0.9-0.9
			v-1.1c0-1.6,1.3-3,3-3h1.1c0.5,0,0.9-0.4,0.9-0.9l0,0C210.6,137,210.2,136.6,209.7,136.6z"/>
	</g>
	<path class="st2" d="M801.8,185.2c-10.2-9.5-23.9-15.3-39-15.3c-4.1,0-8.1,0.4-11.9,1.2c-16.4-20.5-41.7-33.7-70-33.7
		c-33.9,0-63.4,18.8-78.6,46.6c-10.1-8.8-23.2-14.2-37.7-14.2c-20.4,0-38.3,10.7-48.5,26.8c-5.9-4-13-6.3-20.6-6.3
		c-9.1,0-17.5,3.3-23.9,8.9c-9.8-17.5-28.5-29.4-49.9-29.4c-9.5,0-18.4,2.3-26.3,6.4c-14.4-17-35.9-27.8-60-27.8
		c-29.2,0-54.7,16-68.3,39.7c-8.3-6.4-18.6-10.1-29.9-10.1c-4.6,0-9.1,0.6-13.3,1.8c-12.7-13.7-30.9-22.3-51-22.3
		c-19.8,0-37.7,8.3-50.4,21.6c-15.1-21.4-40-35.5-68.2-35.5c-21,0-40.1,7.7-54.8,20.5v732h0v78.8c4.7,0.9,9.6,1.3,14.6,1.3
		c28.4,0,53.3-14.8,67.6-37c4.9,1.8,10.2,2.7,15.7,2.7c7.7,0,15-1.9,21.3-5.3c13.7,22.5,38.5,37.6,66.9,37.6
		c22.1,0,42-9.1,56.2-23.8c18.1,28.8,50.1,47.9,86.7,47.9c31.6,0,59.8-14.3,78.6-36.8c7.4,2.7,15.4,4.2,23.8,4.2
		c20,0,37.9-8.4,50.7-21.9c5.9,2.4,12.3,3.7,19.1,3.7c1.9,0,3.9-0.1,5.7-0.3c13.8,14.9,33.5,24.2,55.4,24.2
		c12.2,0,23.7-2.9,33.9-8.1c18.8,21.4,46.3,35,77,35c28.4,0,54.2-11.6,72.7-30.3c11.8,6.5,25.3,10.2,39.8,10.2
		c5.7,0,11.3-0.6,16.7-1.7v-50.9h0V185.2z"/>
	<g>
		<defs>
			
				<rect id="SVGID_1_" x="3.6" y="2.4" transform="matrix(-1 -1.224647e-016 1.224647e-016 -1 804.6132 260.1392)" width="797.4" height="255.3"/>
		</defs>
		<clipPath id="SVGID_2_">
			<use xlink:href="#SVGID_1_"  style="overflow:visible;"/>
		</clipPath>
		<g class="st3">
			<g>
				<path class="st4" d="M549.2,63.3l-173.7-78c-2.3-1-5,0-6.1,2.3l-57.7,128.5c-1,2.3,0,5,2.3,6.1l173.7,78c2.3,1,5,0,6.1-2.3
					l57.7-128.5C552.6,67.1,551.6,64.3,549.2,63.3z"/>
				
					<rect x="428.7" y="17.7" transform="matrix(0.9122 0.4098 -0.4098 0.9122 75.9093 -168.7512)" class="st5" width="5.8" height="150.1"/>
				
					<rect x="361.8" y="-1.9" transform="matrix(0.4098 -0.9122 0.9122 0.4098 170.1654 448.4338)" class="st2" width="139.7" height="189.2"/>
				
					<rect x="430.2" y="22.9" transform="matrix(0.9122 0.4099 -0.4099 0.9122 75.9172 -168.7619)" class="st6" width="2.9" height="139.7"/>
				<path class="st7" d="M413.8,145.5l-10.3-4.6c-1.5-0.7-3.3,0-4,1.5c-0.7,1.5,0,3.3,1.5,4l10.3,4.6c1.5,0.7,3.3,0,4-1.5
					C416,148,415.3,146.2,413.8,145.5z"/>
				<path class="st7" d="M429.8,109.9l-10.3-4.6c-1.5-0.7-3.3,0-4,1.5c-0.7,1.5,0,3.3,1.5,4l10.3,4.6c1.5,0.7,3.3,0,4-1.5
					C432,112.4,431.3,110.6,429.8,109.9z"/>
				<path class="st7" d="M445.7,74.3l-10.3-4.6c-1.5-0.7-3.3,0-4,1.5c-0.7,1.5,0,3.3,1.5,4l10.3,4.6c1.5,0.7,3.3,0,4-1.5
					C448,76.8,447.3,75,445.7,74.3z"/>
				<path class="st7" d="M449.5,40l10.3,4.6c1.5,0.7,3.3,0,4-1.5c0.7-1.5,0-3.3-1.5-4L452,34.4c-1.5-0.7-3.3,0-4,1.5
					C447.3,37.5,447.9,39.3,449.5,40z"/>
				
					<rect x="350.2" y="75.5" transform="matrix(0.9122 0.4098 -0.4098 0.9122 66.1371 -150.9588)" class="st8" width="70.1" height="6.6"/>
				
					<rect x="344.8" y="87.5" transform="matrix(0.9122 0.4098 -0.4098 0.9122 70.5829 -147.6939)" class="st8" width="70.1" height="6.6"/>
				
					<rect x="339.4" y="99.5" transform="matrix(0.9122 0.4098 -0.4098 0.9122 75.029 -144.4294)" class="st8" width="70.1" height="6.6"/>
				
					<rect x="334" y="111.5" transform="matrix(0.9122 0.4098 -0.4098 0.9122 79.4746 -141.1642)" class="st8" width="70.1" height="6.6"/>
				
					<rect x="437.8" y="114.9" transform="matrix(-0.9122 -0.4098 0.4098 -0.9122 855.723 419.754)" class="st8" width="70.1" height="6.6"/>
				
					<rect x="432.4" y="126.9" transform="matrix(-0.9122 -0.4098 0.4098 -0.9122 840.49 440.4972)" class="st8" width="70.1" height="6.6"/>
				
					<rect x="443.2" y="102.9" transform="matrix(-0.9122 -0.4098 0.4098 -0.9122 870.9554 399.011)" class="st8" width="70.1" height="6.6"/>
				
					<rect x="448.6" y="90.9" transform="matrix(-0.9122 -0.4098 0.4098 -0.9122 886.1871 378.2695)" class="st8" width="70.1" height="6.6"/>
				
					<rect x="454" y="78.9" transform="matrix(-0.9122 -0.4098 0.4098 -0.9122 901.4198 357.5267)" class="st8" width="70.1" height="6.6"/>
				
					<rect x="459.4" y="66.9" transform="matrix(-0.9122 -0.4098 0.4098 -0.9122 916.6533 336.7824)" class="st8" width="70.1" height="6.6"/>
				
					<rect x="428.2" y="133.3" transform="matrix(-0.9122 -0.4098 0.4098 -0.9122 803.61 445.3457)" class="st8" width="42.7" height="6.6"/>
			</g>
			<g>
				<path class="st9" d="M600.5,86.3l101,68l75.7-112.5l-101-68c-2.8-1.9-6.6-1.1-8.5,1.7L598.8,77.8
					C596.9,80.6,597.7,84.4,600.5,86.3z"/>
				
					<ellipse transform="matrix(0.5531 -0.8331 0.8331 0.5531 305.7349 665.5598)" class="st9" cx="773.2" cy="47.8" rx="7.2" ry="7.2"/>
				<g>
					<path class="st2" d="M665.7-15.7l5-7.5c0.7-1,2.1-1.3,3.1-0.6l101.5,68.3c1.7,1.2,2.6,3.1,2.5,5.1c-0.1,0.9-0.4,1.9-0.9,2.7
						c-0.3,0.4-0.6,0.8-0.9,1.1c-1.9,1.7-4.7,2-6.9,0.5c0,0,0,0,0,0L665.7-15.7z"/>
					<path class="st7" d="M665.7-15.7l3.5-5.1c0.7-1,2.1-1.3,3.1-0.6l105.6,71.1c-0.1,0.9-0.4,1.9-0.9,2.7c-0.3,0.4-0.6,0.8-0.9,1.1
						c-1.9,1.7-4.7,2-6.9,0.5c0,0,0,0,0,0L665.7-15.7z"/>
					<path class="st2" d="M665.7-15.7l1.1-1.7c0.7-1,2.1-1.3,3.1-0.6L776,53.4c-1.9,1.7-4.7,2-6.9,0.5c0,0,0,0,0,0L665.7-15.7z"/>
				</g>
				<path class="st10" d="M592.4,98.3l99.5,67l75.7-112.5l-99.5-67c-2.8-1.9-6.6-1.1-8.5,1.7L590.8,89.8
					C588.9,92.6,589.6,96.4,592.4,98.3z"/>
				
					<rect x="727.9" y="41.2" transform="matrix(-0.8295 -0.5584 0.5584 -0.8295 1274.2133 606.9631)" class="st9" width="3.8" height="135.6"/>
				<path class="st10" d="M693.4,166.3c3.3,2.2,7.8,1.4,10-2l75.7-112.5c-2.2,3.3-6.7,4.2-10,2L693.4,166.3L693.4,166.3z"/>
				
					<ellipse transform="matrix(0.5584 -0.8295 0.8295 0.5584 218.7341 592.5955)" class="st2" cx="666" cy="90.8" rx="28.7" ry="28.7"/>
				<path class="st2" d="M672.5,34l43.8,29.5c1.3,0.8,3,0.5,3.8-0.7c0.9-1.3,0.5-3-0.7-3.8l-43.8-29.5c-1.3-0.8-3-0.5-3.8,0.7
					C670.9,31.4,671.2,33.1,672.5,34z"/>
				<polygon class="st11" points="757.4,28.4 760.9,38.1 771.3,37.8 765.5,46.4 751.6,37 				"/>
			</g>
			<g>
				<g>
					<g>
						
							<rect x="96.3" y="-10.1" transform="matrix(-0.7522 0.659 -0.659 -0.7522 175.3049 -78.036)" class="st12" width="12" height="8.1"/>
						<path class="st13" d="M10.2,69.2L100-9.4l89.3,101.9l-93.4,81.8L9.8,76C8,74,8.2,71,10.2,69.2z"/>
						<path class="st14" d="M21.9,82.6l89.8-78.7L201,105.9l-89.8,78.7c-2,1.7-5,1.5-6.7-0.4l-83-94.8C19.8,87.4,20,84.3,21.9,82.6z
							"/>
						
							<rect x="155" y="-16.5" transform="matrix(-0.7522 0.659 -0.659 -0.7522 315.0473 -15.9097)" class="st15" width="11" height="135.5"/>
						
							<rect x="1.9" y="29.7" transform="matrix(-0.7522 0.659 -0.659 -0.7522 136.8964 21.3745)" class="st2" width="125" height="13.5"/>
						
							<rect x="1.9" y="33.5" transform="matrix(-0.7522 0.659 -0.659 -0.7522 136.8966 21.3747)" class="st7" width="125" height="5.8"/>
						
							<rect x="110.3" y="-17.4" transform="matrix(-0.7521 0.659 -0.659 -0.7521 193.4208 -86.8796)" class="st15" width="5.5" height="20.7"/>
						
							<rect x="89.7" y="100.2" transform="matrix(-0.7522 0.659 -0.659 -0.7522 302.988 121.1189)" class="st16" width="78" height="34.8"/>
						
							<rect x="101.7" y="121.8" transform="matrix(-0.7522 0.659 -0.659 -0.7522 316.2174 128.203)" class="st7" width="64.6" height="3.5"/>
						
							<rect x="122.3" y="106.1" transform="matrix(-0.7522 0.659 -0.659 -0.7522 316.0583 96.708)" class="st7" width="35" height="3.5"/>
						
							<rect x="91.1" y="109.8" transform="matrix(-0.7522 0.659 -0.659 -0.7522 289.7586 114.0355)" class="st7" width="64.6" height="3.5"/>
					</g>
				</g>
				
					<rect x="86.9" y="45.5" transform="matrix(-0.7522 0.659 -0.659 -0.7522 231.8919 139.391)" class="st15" width="5.6" height="135.5"/>
				
					<rect x="88.6" y="45.5" transform="matrix(0.7522 -0.659 0.659 0.7522 -52.4235 87.2143)" class="st8" width="2.3" height="135.5"/>
				
					<rect x="36.4" y="46.8" transform="matrix(-0.7522 0.659 -0.659 -0.7522 105.4035 71.6635)" class="st12" width="5.6" height="17.8"/>
				
					<rect x="38.1" y="46.8" transform="matrix(0.7522 -0.659 0.659 0.7522 -26.9516 39.6427)" class="st15" width="2.3" height="17.8"/>
			</g>
			<g>
				<path class="st17" d="M761.1,126.9l7.8-13.1c0.2-0.4-0.2-0.8-0.6-0.6l-13.1,7.8L761.1,126.9z"/>
				
					<rect x="717.4" y="108.8" transform="matrix(-0.7071 -0.7071 0.7071 -0.7071 1118.4045 784.2167)" class="st18" width="8.4" height="103.4"/>
				
					<ellipse transform="matrix(0.7071 -0.7071 0.7071 0.7071 61.3466 542.1411)" class="st19" cx="685.1" cy="197" rx="3" ry="4.2"/>
				
					<rect x="685.1" y="186.9" transform="matrix(-0.7071 -0.7071 0.7071 -0.7071 1040.2548 816.5886)" class="st19" width="8.4" height="11.8"/>
				<path class="st20" d="M698.2,183.9c-1.6-1.6-3.9-2-5.1-0.9l-8.9,8.9c1.2-1.2,3.4-0.8,5.1,0.9c1.6,1.6,2,3.9,0.9,5.1l8.9-8.9
					C700.2,187.8,699.8,185.5,698.2,183.9z"/>
				<path class="st15" d="M765.1,117c0.4,0.4,0.8,0.9,1,1.4l2.8-4.7c0.2-0.4-0.2-0.8-0.6-0.6l-4.7,2.8
					C764.2,116.2,764.6,116.6,765.1,117z"/>
			</g>
			<g>
				<path class="st17" d="M23.5,140.8l-14.3-5.5c-0.4-0.2-0.8,0.3-0.5,0.7l9.9,11.6L23.5,140.8z"/>
				
					<rect x="59.1" y="122.3" transform="matrix(-0.5763 0.8172 -0.8172 -0.5763 242.0017 222.5712)" class="st18" width="8.4" height="103.4"/>
				
					<ellipse transform="matrix(0.5763 -0.8172 0.8172 0.5763 -121.8391 172.5993)" class="st19" cx="105.5" cy="203.8" rx="4.2" ry="3"/>
				
					<rect x="96.5" y="194.5" transform="matrix(-0.5763 0.8172 -0.8172 -0.5763 322.5255 233.5863)" class="st19" width="8.4" height="11.8"/>
				<path class="st20" d="M90.4,193.1c-1.3,1.9-1.3,4.2,0,5.1l10.3,7.3c-1.3-0.9-1.3-3.2,0-5.1c1.3-1.9,3.5-2.6,4.8-1.7l-10.3-7.3
					C93.9,190.5,91.7,191.2,90.4,193.1z"/>
				<path class="st15" d="M13.1,138.6c0.4-0.5,0.8-0.9,1.2-1.3l-5.1-1.9c-0.4-0.2-0.8,0.3-0.5,0.7l3.5,4.1
					C12.4,139.7,12.7,139.1,13.1,138.6z"/>
			</g>
			<g>
				<path class="st15" d="M224.5,102.8l-13.6-8.6c-0.4-0.3-0.9,0.2-0.6,0.7l8.1,14.5L224.5,102.8z"/>
				<polygon class="st15" points="218.3,109.4 224.5,102.8 300.3,183.6 294.2,190.2 				"/>
				<path class="st15" d="M299.4,189.2c1.7-1.8,2.1-4.3,0.9-5.6c-1.2-1.3-3.6-0.9-5.2,0.9c-1.7,1.8-2.1,4.3-0.9,5.6
					C295.4,191.4,297.7,191,299.4,189.2z"/>
				<polygon class="st15" points="285.5,180.9 291.6,174.4 300.3,183.6 294.2,190.2 				"/>
				<path class="st20" d="M290.7,179.9c-1.7,1.8-2.1,4.3-0.9,5.6l2.2,2.3c-1.2-1.3-0.8-3.8,0.9-5.6c1.7-1.8,4-2.2,5.2-0.9L296,179
					C294.8,177.7,292.4,178.1,290.7,179.9z"/>
				<path class="st8" d="M223.2,108c-1.7,1.8-2.1,4.3-0.9,5.6l2.2,2.3c-1.2-1.3-0.8-3.8,0.9-5.6c1.7-1.8,4-2.2,5.2-0.9l-2.2-2.3
					C227.2,105.8,224.9,106.2,223.2,108z"/>
				<path class="st7" d="M211.6,97.4l-1.4-2.5c-0.2-0.4,0.2-0.9,0.6-0.7l2.4,1.5c-0.3,0.2-0.6,0.5-0.9,0.8
					C212.1,96.8,211.8,97.1,211.6,97.4z"/>
			</g>
			<g>
				<path class="st21" d="M332.1-51.7L206.4,25.9l77.6,125.8L332.1-51.7z M243.7,34.7l47-29l-18,76L243.7,34.7z"/>
				
					<rect x="313.2" y="-40.5" transform="matrix(-0.8511 0.525 -0.525 -0.8511 563.6099 -234.16)" class="st15" width="3.7" height="6.8"/>
				
					<rect x="299.8" y="-32.3" transform="matrix(-0.8511 0.525 -0.525 -0.8511 543.2066 -211.8798)" class="st15" width="3.7" height="6.8"/>
				
					<rect x="286.4" y="-24.1" transform="matrix(-0.8511 0.525 -0.525 -0.8511 522.7976 -189.6066)" class="st15" width="3.7" height="6.8"/>
				
					<rect x="273.1" y="-15.8" transform="matrix(-0.8511 0.525 -0.525 -0.8511 502.3803 -167.3463)" class="st15" width="3.7" height="6.8"/>
				
					<rect x="259.7" y="-7.6" transform="matrix(-0.8511 0.525 -0.525 -0.8511 481.9811 -145.0588)" class="st15" width="3.7" height="6.8"/>
				
					<rect x="246.4" y="0.7" transform="matrix(-0.8511 0.525 -0.525 -0.8511 461.5686 -122.7918)" class="st15" width="3.7" height="6.8"/>
				
					<rect x="233" y="8.9" transform="matrix(-0.8511 0.525 -0.525 -0.8511 441.1641 -100.5112)" class="st15" width="3.7" height="6.8"/>
				
					<rect x="219.6" y="17.2" transform="matrix(-0.8511 0.525 -0.525 -0.8511 420.7476 -78.253)" class="st15" width="3.7" height="6.8"/>
				
					<rect x="273.3" y="127.6" transform="matrix(-0.525 -0.8511 0.8511 -0.525 308.1307 433.945)" class="st15" width="3.7" height="6.8"/>
				
					<rect x="265.1" y="114.2" transform="matrix(-0.525 -0.8511 0.8511 -0.525 306.942 406.5507)" class="st15" width="3.7" height="6.8"/>
				
					<rect x="256.8" y="100.9" transform="matrix(-0.5249 -0.8511 0.8511 -0.5249 305.729 379.1602)" class="st15" width="3.7" height="6.8"/>
				
					<rect x="248.6" y="87.5" transform="matrix(-0.525 -0.8511 0.8511 -0.525 304.5422 351.7655)" class="st15" width="3.7" height="6.8"/>
				
					<rect x="240.3" y="74.1" transform="matrix(-0.525 -0.8511 0.8511 -0.525 303.3459 324.3722)" class="st15" width="3.7" height="6.8"/>
				
					<rect x="232.1" y="60.8" transform="matrix(-0.525 -0.8511 0.8511 -0.525 302.1498 296.9788)" class="st15" width="3.7" height="6.8"/>
				
					<rect x="223.9" y="47.4" transform="matrix(-0.525 -0.8511 0.8511 -0.525 300.959 269.5837)" class="st15" width="3.7" height="6.8"/>
				
					<rect x="215.6" y="34.1" transform="matrix(-0.525 -0.8511 0.8511 -0.525 299.7549 242.1934)" class="st15" width="3.7" height="6.8"/>
			</g>
			<g>
				
					<ellipse transform="matrix(0.9108 -0.4129 0.4129 0.9108 23.219 233.4431)" class="st22" cx="551.8" cy="63" rx="40.1" ry="39.2"/>
				
					<rect x="554.9" y="58.9" transform="matrix(-0.9108 0.4129 -0.4129 -0.9108 1127.2433 -41.8668)" class="st22" width="26.5" height="83.9"/>
				<path class="st23" d="M585.2,63.7c0.2-4.9-0.8-9.9-2.9-14.6c-7.6-16.8-27.8-24.1-45.1-16.3c-17.2,7.8-25,27.8-17.4,44.7
					c2.1,4.7,5.2,8.6,9,11.8L585.2,63.7z"/>
				<path class="st22" d="M574.6,150.5l26.4-12c1.1-0.5,1.6-1.8,1.1-2.8l-0.7-1.5c-0.5-1.1-1.8-1.5-2.9-1l-26.4,12
					c-1.1,0.5-1.6,1.8-1.1,2.8l0.7,1.5C572.2,150.6,573.5,151,574.6,150.5z"/>
				
					<rect x="571.6" y="136.3" transform="matrix(-0.9108 0.4129 -0.4129 -0.9108 1174.397 21.6673)" class="st24" width="26.5" height="2.9"/>
			</g>
		</g>
	</g>
	<g>
		<defs>
			<rect id="SVGID_3_" x="-0.4" y="879.9" width="802.2" height="252.8"/>
		</defs>
		<clipPath id="SVGID_4_">
			<use xlink:href="#SVGID_3_"  style="overflow:visible;"/>
		</clipPath>
		<g class="st25">
			<g>
				<path class="st26" d="M862.3,1118.1l-47.2-118.6L683,1052l47.2,118.6c1.3,3.3,5.1,4.9,8.4,3.6l120.2-47.8
					C862,1125.2,863.6,1121.4,862.3,1118.1z"/>
				
					<ellipse transform="matrix(0.9268 -0.3757 0.3757 0.9268 -343.6204 336.0553)" class="st26" cx="690" cy="1049.2" rx="7.6" ry="7.6"/>
				<g>
					<path class="st2" d="M745.5,1167.8l-8.8,3.5c-1.2,0.5-2.6-0.1-3.1-1.3l-47.4-119.2c-0.8-2-0.4-4.3,0.9-5.9
						c0.6-0.8,1.4-1.4,2.4-1.8c0.5-0.2,1-0.3,1.4-0.4c2.6-0.4,5.2,1.1,6.3,3.6c0,0,0,0,0,0L745.5,1167.8z"/>
					<path class="st7" d="M745.5,1167.8l-6,2.4c-1.2,0.5-2.6-0.1-3.1-1.3l-49.3-124c0.6-0.8,1.4-1.4,2.4-1.8c0.5-0.2,1-0.3,1.4-0.4
						c2.6-0.4,5.2,1.1,6.3,3.6c0,0,0,0,0,0L745.5,1167.8z"/>
					<path class="st2" d="M745.5,1167.8l-2,0.8c-1.2,0.5-2.6-0.1-3.1-1.3l-49.6-124.6c2.6-0.4,5.2,1.1,6.3,3.6c0,0,0,0,0,0
						L745.5,1167.8z"/>
				</g>
				<path class="st11" d="M876.4,1112.5l-46.5-116.8l-132.1,52.6l46.5,116.8c1.3,3.3,5.1,4.9,8.4,3.6l120.2-47.8
					C876.1,1119.5,877.7,1115.8,876.4,1112.5z"/>
				
					<rect x="761.9" y="950.9" transform="matrix(0.3697 0.9292 -0.9292 0.3697 1431.0693 -65.5396)" class="st27" width="4" height="142.2"/>
				<path class="st27" d="M829.2,993.9c-1.5-3.9-6-5.8-9.8-4.2l-132.1,52.6c3.9-1.5,8.3,0.4,9.8,4.2L829.2,993.9L829.2,993.9z"/>
				<polygon class="st11" points="692.2,1075.4 694.9,1064.9 685.8,1059.1 695.8,1055.1 702.3,1071.4 				"/>
			</g>
			<g>
				<g>
					<g>
						
							<rect x="399.1" y="1167.6" transform="matrix(0.9433 0.332 -0.332 0.9433 412.3466 -68.4515)" class="st12" width="14.8" height="10.1"/>
						<path class="st28" d="M545,1226.7l-140.7-49.5l55.8-158.5l145.2,51.1l-54.2,154C550.2,1226.3,547.5,1227.6,545,1226.7z"/>
						<path class="st18" d="M552.3,1205.9l-140.7-49.5l55.8-158.5l140.7,49.5c2.5,0.9,3.8,3.6,2.9,6.1L558.4,1203
							C557.5,1205.5,554.8,1206.8,552.3,1205.9z"/>
						
							<rect x="426.2" y="990.9" transform="matrix(0.9433 0.332 -0.332 0.9433 381.3983 -82.8079)" class="st15" width="13.6" height="168"/>
						
							<rect x="398" y="1179.4" transform="matrix(0.9433 0.332 -0.332 0.9433 421.274 -90.489)" class="st2" width="155" height="16.7"/>
						
							<rect x="398" y="1184.1" transform="matrix(0.9433 0.332 -0.332 0.9433 421.274 -90.489)" class="st7" width="155" height="7.2"/>
						
							<rect x="395.5" y="1148.8" transform="matrix(0.9433 0.332 -0.332 0.9433 408.2783 -66.5442)" class="st15" width="6.8" height="25.7"/>
						
							<rect x="475.6" y="1047.4" transform="matrix(0.9433 0.332 -0.332 0.9433 384.5824 -113.331)" class="st16" width="96.8" height="43.1"/>
						
							<rect x="487.2" y="1057.4" transform="matrix(0.9433 0.332 -0.332 0.9433 381.6555 -114.9581)" class="st7" width="80.1" height="4.3"/>
						
							<rect x="485" y="1060.7" transform="matrix(0.9433 0.332 -0.332 0.9433 381.5808 -107.9327)" class="st7" width="43.4" height="4.3"/>
						
							<rect x="480.6" y="1076.2" transform="matrix(0.9433 0.332 -0.332 0.9433 387.5076 -111.7036)" class="st7" width="80.1" height="4.3"/>
					</g>
				</g>
			</g>
			<g>
				<path class="st21" d="M360.1,1232.7l31.3-151.7l-151.7-31.3L360.1,1232.7z M357.8,1103.1l-11.7,56.7l-45-68.4L357.8,1103.1z"/>
				
					<rect x="359.4" y="1205.7" transform="matrix(0.2017 -0.9794 0.9794 0.2017 -895.959 1319.1641)" class="st15" width="3.9" height="7.1"/>
				
					<rect x="362.7" y="1189.5" transform="matrix(0.2018 -0.9794 0.9794 0.2018 -877.5193 1309.5044)" class="st15" width="3.9" height="7.1"/>
				
					<rect x="366" y="1173.4" transform="matrix(0.2018 -0.9794 0.9794 0.2018 -859.0759 1299.8867)" class="st15" width="3.9" height="7.1"/>
				
					<rect x="369.3" y="1157.3" transform="matrix(0.2018 -0.9794 0.9794 0.2018 -840.6324 1290.269)" class="st15" width="3.9" height="7.1"/>
				
					<rect x="372.6" y="1141.2" transform="matrix(0.2018 -0.9794 0.9794 0.2018 -822.195 1280.6012)" class="st15" width="3.9" height="7.1"/>
				
					<rect x="376" y="1125.1" transform="matrix(0.2018 -0.9794 0.9794 0.2018 -803.7523 1270.9792)" class="st15" width="3.9" height="7.1"/>
				
					<rect x="379.3" y="1108.9" transform="matrix(0.2018 -0.9794 0.9794 0.2018 -785.3024 1261.416)" class="st15" width="3.9" height="7.1"/>
				
					<rect x="382.6" y="1092.8" transform="matrix(0.2018 -0.9794 0.9794 0.2018 -766.8611 1251.7832)" class="st15" width="3.9" height="7.1"/>
				
					<rect x="259.7" y="1054.3" transform="matrix(0.9794 0.2018 -0.2018 0.9794 218.831 -31.0362)" class="st15" width="3.9" height="7.1"/>
				
					<rect x="275.8" y="1057.7" transform="matrix(0.9794 0.2018 -0.2018 0.9794 219.8138 -34.2201)" class="st15" width="3.9" height="7.1"/>
				
					<rect x="292" y="1061" transform="matrix(0.9794 0.2018 -0.2018 0.9794 220.8154 -37.4048)" class="st15" width="3.9" height="7.1"/>
				
					<rect x="308.1" y="1064.3" transform="matrix(0.9794 0.2018 -0.2018 0.9794 221.8171 -40.5895)" class="st15" width="3.9" height="7.1"/>
				
					<rect x="324.2" y="1067.6" transform="matrix(0.9794 0.2017 -0.2017 0.9794 222.8091 -43.7732)" class="st15" width="3.9" height="7.1"/>
				
					<rect x="340.3" y="1071" transform="matrix(0.9794 0.2017 -0.2017 0.9794 223.8106 -46.9578)" class="st15" width="3.9" height="7.1"/>
				
					<rect x="356.5" y="1074.3" transform="matrix(0.9794 0.2018 -0.2018 0.9794 224.822 -50.1434)" class="st15" width="3.9" height="7.1"/>
				
					<rect x="372.6" y="1077.6" transform="matrix(0.9794 0.2018 -0.2018 0.9794 225.8334 -53.3294)" class="st15" width="3.9" height="7.1"/>
			</g>
			<g>
				<g>
					<path class="st6" d="M55.2,1114.7c-0.5,0.3-1.2,0.3-1.8,0.1c-1.2-0.4-1.9-1.8-1.5-3l61.7-182.2c0.4-1.2,1.8-1.9,3-1.5
						c1.2,0.4,1.9,1.8,1.5,3l-61.7,182.2C56.2,1114,55.7,1114.5,55.2,1114.7z"/>
				</g>
				
					<ellipse transform="matrix(0.8966 -0.4429 0.4429 0.8966 -444.208 148.7181)" class="st29" cx="96.3" cy="1025.4" rx="82.3" ry="82.3"/>
				<path class="st30" d="M92.3,988.3l-5.6,2.8c-2.6,1.3-3.7,4.5-2.4,7.1c1.3,2.6,4.5,3.7,7.1,2.4l5.6-2.8c2.6-1.3,3.7-4.5,2.4-7.1
					C98.2,988,95,987,92.3,988.3z"/>
				<path class="st30" d="M170.1,988.9c2.8,5.6,4.9,11.4,6.3,17.3l-48,23.7c-2.6,1.3-5.8,0.2-7.1-2.4c-1.3-2.6-0.2-5.8,2.4-7.1l6-3
					c2.6-1.3,3.7-4.5,2.4-7.1c-1.3-2.6-4.5-3.7-7.1-2.4l-20.3,10c-2.6,1.3-5.8,0.2-7.1-2.4c-1.3-2.6-0.2-5.8,2.4-7.1l29.9-14.8
					c2.6-1.3,3.7-4.5,2.4-7.1c-1.3-2.6-4.5-3.7-7.1-2.4l-10.5,5.2c-2.6,1.3-5.8,0.2-7.1-2.4c-1.3-2.6-0.2-5.8,2.4-7.1l25.1-12.4
					c2.6-1.3,3.7-4.5,2.4-7.1s-4.5-3.7-7.1-2.4l-14.7,7.3c-2.6,1.3-5.8,0.2-7.1-2.4c-1.3-2.6-0.2-5.8,2.4-7.1l14.5-7.2
					C144.1,955.4,160.4,969.4,170.1,988.9z"/>
				<path class="st30" d="M177,1041.5c-4.5,22.6-18.5,43.2-39.8,55.3l-1,0.5c-2.6,1.3-5.8,0.2-7.1-2.4c-1.3-2.6-0.2-5.8,2.4-7.1
					l13-6.4c2.6-1.3,3.7-4.5,2.4-7.1c-1.3-2.6-4.5-3.7-7.1-2.4l-4.6,2.3c-2.6,1.3-5.8,0.2-7.1-2.4c-1.3-2.6-0.2-5.8,2.4-7.1l3.7-1.8
					c2.6-1.3,3.7-4.5,2.4-7.1c-1.3-2.6-4.5-3.7-7.1-2.4l-17.2,8.5c-2.6,1.3-5.8,0.2-7.1-2.4c-1.3-2.6-0.2-5.8,2.4-7.1l39.3-19.4
					c2.6-1.3,5.8-0.2,7.1,2.4c1.3,2.6,0.2,5.8-2.4,7.1l-2.7,1.3c-2.6,1.3-3.7,4.5-2.4,7.1c1.3,2.6,4.5,3.7,7.1,2.4L177,1041.5z"/>
				<path class="st30" d="M178.2,1017.1c0.4,3.9,0.5,7.8,0.3,11.7l-5.8,2.9c-2.6,1.3-5.8,0.2-7.1-2.4c-1.3-2.6-0.2-5.8,2.4-7.1
					L178.2,1017.1z"/>
				<path class="st30" d="M95.3,1081.9l-13.7,6.8c-2.6,1.3-3.7,4.5-2.4,7.1c1.3,2.6,4.5,3.7,7.1,2.4l13.7-6.8
					c2.6-1.3,3.7-4.5,2.4-7.1C101.1,1081.6,97.9,1080.6,95.3,1081.9z"/>
				<path class="st30" d="M34,1023l-19.7,9.7c-1.2-13.2,0.9-26.4,5.8-38.5l12.6-6.2c1.3-0.7,2.8-0.7,4.1-0.3
					c1.3,0.4,2.4,1.4,3.1,2.7c1.3,2.6,0.2,5.8-2.4,7.1l-13.9,6.9c-1.3,0.7-2.2,1.8-2.7,3.1c-0.4,1.3-0.4,2.7,0.3,4.1
					c1.3,2.6,4.5,3.7,7.1,2.4l1.1-0.5c1.3-0.7,2.8-0.7,4.1-0.3c1.3,0.4,2.4,1.4,3.1,2.7C37.7,1018.5,36.6,1021.7,34,1023z"/>
				<path class="st30" d="M69,1023.6c1.3,2.6,0.2,5.8-2.4,7.1l-20,9.9c-1.3,0.7-2.2,1.8-2.7,3.1c-0.4,1.3-0.4,2.7,0.3,4.1
					c1.3,2.6,4.5,3.7,7.1,2.4l5.7-2.8c1.3-0.7,2.8-0.7,4.1-0.3c1.3,0.4,2.4,1.4,3.1,2.7c1.3,2.6,0.2,5.8-2.4,7.1L29.1,1073
					c-2.5-3.5-4.7-7.2-6.6-11.1c-2.9-5.9-5-11.9-6.4-18l45.8-22.6C64.5,1019.8,67.7,1020.9,69,1023.6z"/>
				<path class="st15" d="M187.4,980.3c-17.1-34.7-53.2-56.9-91.9-56.6c-2.6,0-4.7,2.2-4.7,4.8c0,2.6,2.2,4.7,4.8,4.7
					c35.1-0.3,67.8,19.9,83.3,51.4c22.5,45.6,3.8,101-41.8,123.5c-31.9,15.8-69.3,12-97.4-9.8c-2.1-1.6-5-1.2-6.6,0.8
					c-1.6,2.1-1.2,5,0.8,6.6c29.8,23.1,68.9,27.8,103.1,12.8l20.4,41.4l-24.7,12.2c-2.3,1.2-3.3,4-2.1,6.3c1.2,2.3,4,3.3,6.3,2.1
					l58-28.6c2.3-1.2,3.3-4,2.1-6.3c-1.2-2.3-4-3.3-6.3-2.1l-24.7,12.2l-20.4-41.3C192.7,1088.2,211.5,1029.2,187.4,980.3z"/>
			</g>
			<g>
				<path class="st17" d="M661.2,1097.1l10.6,11.1c0.3,0.3,0.9,0,0.7-0.4l-4-14.8L661.2,1097.1z"/>
				
					<rect x="635" y="997.8" transform="matrix(0.87 -0.493 0.493 0.87 -434.4777 451.6141)" class="st18" width="8.4" height="104"/>
				<ellipse transform="matrix(0.87 -0.493 0.493 0.87 -415.5072 433.0939)" class="st19" cx="613.6" cy="1004.5" rx="4.2" ry="3"/>
				
					<rect x="612.3" y="1003.8" transform="matrix(0.87 -0.493 0.493 0.87 -417.6712 435.2038)" class="st19" width="8.4" height="11.9"/>
				<path class="st20" d="M622.8,1020.8c2-1.1,3-3.2,2.2-4.7l-6.2-11c0.8,1.4-0.2,3.5-2.2,4.7c-2,1.1-4.3,0.9-5.1-0.5l6.2,11
					C618.5,1021.7,620.8,1021.9,622.8,1020.8z"/>
				<path class="st15" d="M669.7,1103.6c-0.6,0.3-1.1,0.5-1.7,0.6l3.8,3.9c0.3,0.3,0.9,0,0.7-0.4l-1.4-5.3
					C670.7,1102.9,670.3,1103.3,669.7,1103.6z"/>
			</g>
			<g>
				<path class="st17" d="M238.8,1080.7l-5.5-14.3c-0.2-0.4-0.8-0.3-0.8,0.1l-2,15.2L238.8,1080.7z"/>
				
					<rect x="236.5" y="1080.8" transform="matrix(-0.9932 0.1162 -0.1162 -0.9932 611.4713 2229.967)" class="st18" width="8.4" height="104"/>
				
					<ellipse transform="matrix(0.9932 -0.1162 0.1162 0.9932 -135.9792 36.7029)" class="st19" cx="246.8" cy="1184.4" rx="4.2" ry="3"/>
				
					<rect x="241.9" y="1172.6" transform="matrix(-0.9932 0.1162 -0.1162 -0.9932 627.4354 2320.5176)" class="st19" width="8.4" height="11.9"/>
				<path class="st20" d="M244.6,1165.9c-2.3,0.3-4,1.8-3.8,3.5l1.5,12.6c-0.2-1.6,1.5-3.2,3.8-3.5c2.3-0.3,4.3,0.8,4.5,2.5
					l-1.5-12.6C248.9,1166.8,246.9,1165.7,244.6,1165.9z"/>
				<path class="st15" d="M233.5,1071.4c0.6-0.1,1.2,0,1.8,0.1l-2-5.1c-0.2-0.4-0.8-0.3-0.8,0.1l-0.7,5.4
					C232.3,1071.6,232.9,1071.5,233.5,1071.4z"/>
			</g>
			<g>
				<path class="st17" d="M297.4,1029.3l-14,6.4c-0.4,0.2-0.3,0.8,0.2,0.8l15.3,1.1L297.4,1029.3z"/>
				
					<rect x="345.1" y="972.2" transform="matrix(0.178 0.984 -0.984 0.178 1294.9249 498.172)" class="st18" width="8.4" height="104"/>
				
					<ellipse transform="matrix(0.984 -0.178 0.178 0.984 -174.2909 87.4993)" class="st19" cx="400.4" cy="1014.9" rx="3" ry="4.2"/>
				
					<rect x="390.4" y="1010.1" transform="matrix(0.178 0.984 -0.984 0.178 1324.1146 446.8593)" class="st19" width="8.4" height="11.9"/>
				<path class="st20" d="M382.1,1018.3c0.4,2.3,2.1,3.9,3.7,3.6l12.5-2.3c-1.6,0.3-3.3-1.3-3.7-3.6c-0.4-2.3,0.6-4.4,2.2-4.7
					l-12.5,2.3C382.6,1013.9,381.7,1016,382.1,1018.3z"/>
				<path class="st15" d="M288.4,1035.2c-0.1-0.6-0.1-1.2,0-1.8l-5,2.3c-0.4,0.2-0.3,0.8,0.2,0.8l5.5,0.4
					C288.7,1036.4,288.5,1035.8,288.4,1035.2z"/>
			</g>
		</g>
	</g>
	<g>
		<path class="st2" d="M191.8,1115.8h2c2.9,0,5.2,2.3,5.2,5.2v1.9c0,0.8,0.6,1.5,1.4,1.6c0.9,0,1.6-0.6,1.6-1.5v-2
			c0-2.9,2.3-5.2,5.2-5.2h2c0.8,0,1.5-0.7,1.5-1.5l0,0c0-0.8-0.7-1.5-1.5-1.5h-2c-2.9,0-5.2-2.3-5.2-5.2v-1.9c0-0.8-0.6-1.5-1.4-1.6
			c-0.9,0-1.6,0.6-1.6,1.5v2c0,2.9-2.3,5.2-5.2,5.2h-2c-0.8,0-1.5,0.7-1.5,1.5l0,0C190.3,1115.1,191,1115.8,191.8,1115.8z"/>
		<path class="st2" d="M510.7,992.1h2c2.9,0,5.2,2.3,5.2,5.2v1.9c0,0.8,0.6,1.5,1.4,1.6c0.9,0,1.6-0.6,1.6-1.5v-2
			c0-2.9,2.3-5.2,5.2-5.2h2c0.8,0,1.5-0.7,1.5-1.5l0,0c0-0.8-0.7-1.5-1.5-1.5h-2c-2.9,0-5.2-2.3-5.2-5.2V982c0-0.8-0.6-1.5-1.4-1.6
			c-0.9,0-1.6,0.6-1.6,1.5v2c0,2.9-2.3,5.2-5.2,5.2h-2c-0.8,0-1.5,0.7-1.5,1.5l0,0C509.2,991.4,509.8,992.1,510.7,992.1z"/>
		<path class="st2" d="M323.6,1044.5h2c2.9,0,5.2,2.3,5.2,5.2v1.9c0,0.8,0.6,1.5,1.4,1.6c0.9,0,1.6-0.6,1.6-1.5v-2
			c0-2.9,2.3-5.2,5.2-5.2h2c0.8,0,1.5-0.7,1.5-1.5l0,0c0-0.8-0.7-1.5-1.5-1.5h-2c-2.9,0-5.2-2.3-5.2-5.2v-1.9c0-0.8-0.6-1.5-1.4-1.6
			c-0.9,0-1.6,0.6-1.6,1.5v2c0,2.9-2.3,5.2-5.2,5.2h-2c-0.8,0-1.5,0.7-1.5,1.5l0,0C322,1043.9,322.7,1044.5,323.6,1044.5z"/>
		<path class="st2" d="M382.5,1051.4h1.1c1.6,0,3,1.3,3,3v1.1c0,0.5,0.3,0.9,0.8,0.9c0.5,0,0.9-0.4,0.9-0.9v-1.1c0-1.6,1.3-3,3-3
			h1.1c0.5,0,0.9-0.4,0.9-0.9l0,0c0-0.5-0.4-0.9-0.9-0.9h-1.1c-1.6,0-3-1.3-3-3v-1.1c0-0.5-0.3-0.9-0.8-0.9c-0.5,0-0.9,0.4-0.9,0.9
			v1.1c0,1.6-1.3,3-3,3h-1.1c-0.5,0-0.9,0.4-0.9,0.9l0,0C381.7,1051.1,382.1,1051.4,382.5,1051.4z"/>
		<path class="st2" d="M751.1,986.1h1.1c1.6,0,3,1.3,3,3v1.1c0,0.5,0.3,0.9,0.8,0.9c0.5,0,0.9-0.4,0.9-0.9v-1.1c0-1.6,1.3-3,3-3h1.1
			c0.5,0,0.9-0.4,0.9-0.9l0,0c0-0.5-0.4-0.9-0.9-0.9h-1.1c-1.6,0-3-1.3-3-3v-1.1c0-0.5-0.3-0.9-0.8-0.9c-0.5,0-0.9,0.4-0.9,0.9v1.1
			c0,1.6-1.3,3-3,3h-1.1c-0.5,0-0.9,0.4-0.9,0.9l0,0C750.2,985.7,750.6,986.1,751.1,986.1z"/>
		<path class="st2" d="M622.1,1115.2h1.1c1.6,0,3,1.3,3,3v1.1c0,0.5,0.3,0.9,0.8,0.9c0.5,0,0.9-0.4,0.9-0.9v-1.1c0-1.6,1.3-3,3-3
			h1.1c0.5,0,0.9-0.4,0.9-0.9l0,0c0-0.5-0.4-0.9-0.9-0.9h-1.1c-1.6,0-3-1.3-3-3v-1.1c0-0.5-0.3-0.9-0.8-0.9c-0.5,0-0.9,0.4-0.9,0.9
			v1.1c0,1.6-1.3,3-3,3h-1.1c-0.5,0-0.9,0.4-0.9,0.9l0,0C621.3,1114.8,621.7,1115.2,622.1,1115.2z"/>
		<path class="st2" d="M232.5,1002.9h1.1c1.6,0,3,1.3,3,3v1.1c0,0.5,0.4,0.9,0.8,0.9c0.5,0,0.9-0.4,0.9-0.9v-1.1c0-1.6,1.3-3,3-3
			h1.1c0.5,0,0.9-0.4,0.9-0.9l0,0c0-0.5-0.4-0.9-0.9-0.9h-1.1c-1.6,0-3-1.3-3-3v-1.1c0-0.5-0.3-0.9-0.8-0.9c-0.5,0-0.9,0.4-0.9,0.9
			v1.1c0,1.6-1.3,3-3,3h-1.1c-0.5,0-0.9,0.4-0.9,0.9l0,0C231.7,1002.5,232.1,1002.9,232.5,1002.9z"/>
		<path class="st2" d="M11.3,1083.1h1.1c1.6,0,3,1.3,3,3v1.1c0,0.5,0.4,0.9,0.8,0.9c0.5,0,0.9-0.4,0.9-0.9v-1.1c0-1.6,1.3-3,3-3h1.1
			c0.5,0,0.9-0.4,0.9-0.9l0,0c0-0.5-0.4-0.9-0.9-0.9h-1.1c-1.6,0-3-1.3-3-3v-1.1c0-0.5-0.3-0.9-0.8-0.9c-0.5,0-0.9,0.4-0.9,0.9v1.1
			c0,1.6-1.3,3-3,3h-1.1c-0.5,0-0.9,0.4-0.9,0.9l0,0C10.4,1082.7,10.8,1083.1,11.3,1083.1z"/>
		<path class="st2" d="M321,982.9h1.1c1.6,0,3,1.3,3,3v1.1c0,0.5,0.4,0.9,0.8,0.9c0.5,0,0.9-0.4,0.9-0.9v-1.1c0-1.6,1.3-3,3-3h1.1
			c0.5,0,0.9-0.4,0.9-0.9l0,0c0-0.5-0.4-0.9-0.9-0.9h-1.1c-1.6,0-3-1.3-3-3v-1.1c0-0.5-0.3-0.9-0.8-0.9c-0.5,0-0.9,0.4-0.9,0.9v1.1
			c0,1.6-1.3,3-3,3H321c-0.5,0-0.9,0.4-0.9,0.9l0,0C320.2,982.5,320.5,982.9,321,982.9z"/>
		<path class="st2" d="M200.6,1039.3h1.1c1.6,0,3,1.3,3,3v1.1c0,0.5,0.4,0.9,0.8,0.9c0.5,0,0.9-0.4,0.9-0.9v-1.1c0-1.6,1.3-3,3-3
			h1.1c0.5,0,0.9-0.4,0.9-0.9l0,0c0-0.5-0.4-0.9-0.9-0.9h-1.1c-1.6,0-3-1.3-3-3v-1.1c0-0.5-0.4-0.9-0.8-0.9c-0.5,0-0.9,0.4-0.9,0.9
			v1.1c0,1.6-1.3,3-3,3h-1.1c-0.5,0-0.9,0.4-0.9,0.9l0,0C199.7,1038.9,200.1,1039.3,200.6,1039.3z"/>
		<path class="st2" d="M661.5,1025.5h1.1c1.6,0,3,1.3,3,3v1.1c0,0.5,0.3,0.9,0.8,0.9c0.5,0,0.9-0.4,0.9-0.9v-1.1c0-1.6,1.3-3,3-3
			h1.1c0.5,0,0.9-0.4,0.9-0.9l0,0c0-0.5-0.4-0.9-0.9-0.9h-1.1c-1.6,0-3-1.3-3-3v-1.1c0-0.5-0.3-0.9-0.8-0.9c-0.5,0-0.9,0.4-0.9,0.9
			v1.1c0,1.6-1.3,3-3,3h-1.1c-0.5,0-0.9,0.4-0.9,0.9l0,0C660.6,1025.1,661,1025.5,661.5,1025.5z"/>
		<path class="st2" d="M422.8,996h1.1c1.6,0,3,1.3,3,3v1.1c0,0.5,0.3,0.9,0.8,0.9c0.5,0,0.9-0.4,0.9-0.9V999c0-1.6,1.3-3,3-3h1.1
			c0.5,0,0.9-0.4,0.9-0.9l0,0c0-0.5-0.4-0.9-0.9-0.9h-1.1c-1.6,0-3-1.3-3-3v-1.1c0-0.5-0.3-0.9-0.8-0.9c-0.5,0-0.9,0.4-0.9,0.9v1.1
			c0,1.6-1.3,3-3,3h-1.1c-0.5,0-0.9,0.4-0.9,0.9l0,0C421.9,995.6,422.3,996,422.8,996z"/>
		<path class="st2" d="M591.6,994.6h1.1c1.6,0,3,1.3,3,3v1.1c0,0.5,0.3,0.9,0.8,0.9c0.5,0,0.9-0.4,0.9-0.9v-1.1c0-1.6,1.3-3,3-3h1.1
			c0.5,0,0.9-0.4,0.9-0.9l0,0c0-0.5-0.4-0.9-0.9-0.9h-1.1c-1.6,0-3-1.3-3-3v-1.1c0-0.5-0.3-0.9-0.8-0.9c-0.5,0-0.9,0.4-0.9,0.9v1.1
			c0,1.6-1.3,3-3,3h-1.1c-0.5,0-0.9,0.4-0.9,0.9l0,0C590.8,994.2,591.2,994.6,591.6,994.6z"/>
	</g>
	<g>
		<rect x="101.7" y="341.9" class="st15" width="597.9" height="0.7"/>
	</g>
</g>
<rect x="-192.9" y="144.9" class="st31" width="177.8" height="43.2"/>
<rect x="-323.1" y="249.9" class="st32" width="434.6" height="296.3"/>
</svg>
