<?xml version="1.0" encoding="utf-8"?>
<!-- Generator: Adobe Illustrator 19.2.1, SVG Export Plug-In . SVG Version: 6.00 Build 0)  -->
<svg version="1.1" id="Layer_1" xmlns="http://www.w3.org/2000/svg" xmlns:xlink="http://www.w3.org/1999/xlink" x="0px" y="0px"
	 viewBox="0 0 800 960" style="enable-background:new 0 0 800 960;" xml:space="preserve">
<style type="text/css">
	.st0{fill:#80DEEA;}
	.st1{fill:#FAFAFA;}
	.st2{clip-path:url(#SVGID_2_);}
	.st3{fill:#FF8A65;}
	.st4{fill:#FF7043;}
	.st5{fill:#E0E0E0;}
	.st6{fill:#BDBDBD;}
	.st7{fill:#616161;}
	.st8{fill:#FCB316;}
	.st9{fill:#FFD54E;}
	.st10{fill:#E53935;}
	.st11{fill:#212121;}
	.st12{fill:#43A047;}
	.st13{fill:#81C784;}
	.st14{fill:#434343;}
	.st15{fill:#F5F5F5;}
	.st16{fill:#FFE0B2;}
	.st17{fill:#FFCA28;}
	.st18{fill:#EF5350;}
	.st19{fill:#EEEEEE;}
	.st20{fill:#FFB74D;}
	.st21{fill:#E1F5FE;}
	.st22{fill:#4DB6AC;}
	.st23{fill:#B3E5FC;}
	.st24{clip-path:url(#SVGID_4_);}
	.st25{fill:#C62828;}
	.st26{fill:#D32F2F;}
	.st27{fill:#FFA000;}
	.st28{fill:#039BE5;}
	.st29{fill:#317E3D;}
</style>
<g>
	<rect x="-2" y="0.2" class="st0" width="802.9" height="965"/>
	<g>
		<path class="st1" d="M577.6,14.8h-1.7c-2.4,0-4.4-2-4.4-4.4V8.8c0-0.7-0.5-1.3-1.2-1.3c-0.7,0-1.4,0.5-1.4,1.3v1.7
			c0,2.4-2,4.4-4.4,4.4h-1.7c-0.7,0-1.3,0.6-1.3,1.3l0,0c0,0.7,0.6,1.3,1.3,1.3h1.7c2.4,0,4.4,2,4.4,4.4v1.6c0,0.7,0.5,1.3,1.2,1.3
			c0.7,0,1.4-0.5,1.4-1.3v-1.7c0-2.4,2-4.4,4.4-4.4h1.7c0.7,0,1.3-0.6,1.3-1.3l0,0C578.9,15.4,578.3,14.8,577.6,14.8z"/>
		<path class="st1" d="M328.9,83h-1.7c-2.4,0-4.4-2-4.4-4.4V77c0-0.7-0.5-1.3-1.2-1.3c-0.7,0-1.4,0.5-1.4,1.3v1.7
			c0,2.4-2,4.4-4.4,4.4h-1.7c-0.7,0-1.3,0.6-1.3,1.3l0,0c0,0.7,0.6,1.3,1.3,1.3h1.7c2.4,0,4.4,2,4.4,4.4v1.6c0,0.7,0.5,1.3,1.2,1.3
			c0.7,0,1.4-0.5,1.4-1.3V90c0-2.4,2-4.4,4.4-4.4h1.7c0.7,0,1.3-0.6,1.3-1.3l0,0C330.2,83.6,329.6,83,328.9,83z"/>
		<path class="st1" d="M479.1,92.9h-1.7c-2.4,0-4.4-2-4.4-4.4v-1.6c0-0.7-0.5-1.3-1.2-1.3c-0.7,0-1.4,0.5-1.4,1.3v1.7
			c0,2.4-2,4.4-4.4,4.4h-1.7c-0.7,0-1.3,0.6-1.3,1.3l0,0c0,0.7,0.6,1.3,1.3,1.3h1.7c2.4,0,4.4,2,4.4,4.4v1.6c0,0.7,0.5,1.3,1.2,1.3
			c0.7,0,1.4-0.5,1.4-1.3v-1.7c0-2.4,2-4.4,4.4-4.4h1.7c0.7,0,1.3-0.6,1.3-1.3l0,0C480.4,93.5,479.8,92.9,479.1,92.9z"/>
		<path class="st1" d="M627.7,65.1h-1c-1.4,0-2.5-1.1-2.5-2.5v-0.9c0-0.4-0.3-0.8-0.7-0.8c-0.4,0-0.8,0.3-0.8,0.7v1
			c0,1.4-1.1,2.5-2.5,2.5h-1c-0.4,0-0.7,0.3-0.7,0.7l0,0c0,0.4,0.3,0.7,0.7,0.7h1c1.4,0,2.5,1.1,2.5,2.5V70c0,0.4,0.3,0.8,0.7,0.8
			c0.4,0,0.8-0.3,0.8-0.7v-1c0-1.4,1.1-2.5,2.5-2.5h1c0.4,0,0.7-0.3,0.7-0.7l0,0C628.5,65.4,628.1,65.1,627.7,65.1z"/>
		<path class="st1" d="M88.6,92.2h-1c-1.4,0-2.5-1.1-2.5-2.5v-0.9c0-0.4-0.3-0.8-0.7-0.8c-0.4,0-0.8,0.3-0.8,0.7v1
			c0,1.4-1.1,2.5-2.5,2.5h-1c-0.4,0-0.7,0.3-0.7,0.7l0,0c0,0.4,0.3,0.7,0.7,0.7h1c1.4,0,2.5,1.1,2.5,2.5v0.9c0,0.4,0.3,0.8,0.7,0.8
			c0.4,0,0.8-0.3,0.8-0.7v-1c0-1.4,1.1-2.5,2.5-2.5h1c0.4,0,0.7-0.3,0.7-0.7l0,0C89.3,92.5,89,92.2,88.6,92.2z"/>
		<path class="st1" d="M210.3,15.3h-1c-1.4,0-2.5-1.1-2.5-2.5v-0.9c0-0.4-0.3-0.8-0.7-0.8c-0.4,0-0.8,0.3-0.8,0.7v1
			c0,1.4-1.1,2.5-2.5,2.5h-1c-0.4,0-0.7,0.3-0.7,0.7l0,0c0,0.4,0.3,0.7,0.7,0.7h1c1.4,0,2.5,1.1,2.5,2.5v0.9c0,0.4,0.3,0.8,0.7,0.8
			c0.4,0,0.8-0.3,0.8-0.7v-1c0-1.4,1.1-2.5,2.5-2.5h1c0.4,0,0.7-0.3,0.7-0.7l0,0C211,15.7,210.7,15.3,210.3,15.3z"/>
		<path class="st1" d="M718.5,74.9h-1c-1.4,0-2.5-1.1-2.5-2.5v-0.9c0-0.4-0.3-0.8-0.7-0.8c-0.4,0-0.8,0.3-0.8,0.7v1
			c0,1.4-1.1,2.5-2.5,2.5h-1c-0.4,0-0.7,0.3-0.7,0.7l0,0c0,0.4,0.3,0.7,0.7,0.7h1c1.4,0,2.5,1.1,2.5,2.5v0.9c0,0.4,0.3,0.8,0.7,0.8
			c0.4,0,0.8-0.3,0.8-0.7v-1c0-1.4,1.1-2.5,2.5-2.5h1c0.4,0,0.7-0.3,0.7-0.7l0,0C719.2,75.3,718.9,74.9,718.5,74.9z"/>
		<path class="st1" d="M588.1,108.7h-1c-1.4,0-2.5-1.1-2.5-2.5v-0.9c0-0.4-0.3-0.8-0.7-0.8c-0.4,0-0.8,0.3-0.8,0.7v1
			c0,1.4-1.1,2.5-2.5,2.5h-1c-0.4,0-0.7,0.3-0.7,0.7l0,0c0,0.4,0.3,0.7,0.7,0.7h1c1.4,0,2.5,1.1,2.5,2.5v0.9c0,0.4,0.3,0.8,0.7,0.8
			c0.4,0,0.8-0.3,0.8-0.7v-1c0-1.4,1.1-2.5,2.5-2.5h1c0.4,0,0.7-0.3,0.7-0.7l0,0C588.8,109,588.5,108.7,588.1,108.7z"/>
		<path class="st1" d="M467.3,127.8h-1c-1.4,0-2.5-1.1-2.5-2.5v-0.9c0-0.4-0.3-0.8-0.7-0.8c-0.4,0-0.8,0.3-0.8,0.7v1
			c0,1.4-1.1,2.5-2.5,2.5h-1c-0.4,0-0.7,0.3-0.7,0.7l0,0c0,0.4,0.3,0.7,0.7,0.7h1c1.4,0,2.5,1.1,2.5,2.5v0.9c0,0.4,0.3,0.8,0.7,0.8
			c0.4,0,0.8-0.3,0.8-0.7v-1c0-1.4,1.1-2.5,2.5-2.5h1c0.4,0,0.7-0.3,0.7-0.7l0,0C468.1,128.1,467.7,127.8,467.3,127.8z"/>
		<path class="st1" d="M683,33.3h-1c-1.4,0-2.5-1.1-2.5-2.5v-0.9c0-0.4-0.3-0.8-0.7-0.8c-0.4,0-0.8,0.3-0.8,0.7v1
			c0,1.4-1.1,2.5-2.5,2.5h-1c-0.4,0-0.7,0.3-0.7,0.7l0,0c0,0.4,0.3,0.7,0.7,0.7h1c1.4,0,2.5,1.1,2.5,2.5v0.9c0,0.4,0.3,0.8,0.7,0.8
			c0.4,0,0.8-0.3,0.8-0.7v-1c0-1.4,1.1-2.5,2.5-2.5h1c0.4,0,0.7-0.3,0.7-0.7l0,0C683.7,33.7,683.4,33.3,683,33.3z"/>
		<path class="st1" d="M205.3,93.5h-1c-1.4,0-2.5-1.1-2.5-2.5V90c0-0.4-0.3-0.8-0.7-0.8c-0.4,0-0.8,0.3-0.8,0.7v1
			c0,1.4-1.1,2.5-2.5,2.5h-1c-0.4,0-0.7,0.3-0.7,0.7l0,0c0,0.4,0.3,0.7,0.7,0.7h1c1.4,0,2.5,1.1,2.5,2.5v0.9c0,0.4,0.3,0.8,0.7,0.8
			c0.4,0,0.8-0.3,0.8-0.7v-1c0-1.4,1.1-2.5,2.5-2.5h1c0.4,0,0.7-0.3,0.7-0.7l0,0C206,93.8,205.7,93.5,205.3,93.5z"/>
		<path class="st1" d="M380.4,116.7h-1c-1.4,0-2.5-1.1-2.5-2.5v-0.9c0-0.4-0.3-0.8-0.7-0.8c-0.4,0-0.8,0.3-0.8,0.7v1
			c0,1.4-1.1,2.5-2.5,2.5h-1c-0.4,0-0.7,0.3-0.7,0.7l0,0c0,0.4,0.3,0.7,0.7,0.7h1c1.4,0,2.5,1.1,2.5,2.5v0.9c0,0.4,0.3,0.8,0.7,0.8
			c0.4,0,0.8-0.3,0.8-0.7v-1c0-1.4,1.1-2.5,2.5-2.5h1c0.4,0,0.7-0.3,0.7-0.7l0,0C381.2,117,380.8,116.7,380.4,116.7z"/>
		<path class="st1" d="M236.3,117.9h-1c-1.4,0-2.5-1.1-2.5-2.5v-0.9c0-0.4-0.3-0.8-0.7-0.8c-0.4,0-0.8,0.3-0.8,0.7v1
			c0,1.4-1.1,2.5-2.5,2.5h-1c-0.4,0-0.7,0.3-0.7,0.7l0,0c0,0.4,0.3,0.7,0.7,0.7h1c1.4,0,2.5,1.1,2.5,2.5v0.9c0,0.4,0.3,0.8,0.7,0.8
			c0.4,0,0.8-0.3,0.8-0.7v-1c0-1.4,1.1-2.5,2.5-2.5h1c0.4,0,0.7-0.3,0.7-0.7l0,0C237,118.2,236.7,117.9,236.3,117.9z"/>
	</g>
	<path class="st1" d="M802.9,181.6c-10.2-10.6-23.9-17-39-17c-4.1,0-8.1,0.5-11.9,1.4c-16.4-22.8-41.7-37.4-70.1-37.4
		c-33.9,0-63.5,20.9-78.7,51.8c-10.1-9.8-23.3-15.7-37.7-15.7c-20.4,0-38.4,11.9-48.5,29.8c-5.9-4.4-13-7-20.6-7
		c-9.1,0-17.5,3.7-23.9,9.9c-9.8-19.5-28.5-32.6-50-32.6c-9.5,0-18.4,2.6-26.3,7.1c-14.4-18.9-36-30.9-60-30.9
		c-29.3,0-54.8,17.8-68.3,44.1c-8.3-7.1-18.6-11.3-29.9-11.3c-4.6,0-9.1,0.7-13.3,2c-12.7-15.2-30.9-24.8-51.1-24.8
		c-19.9,0-37.8,9.2-50.4,24c-15.1-23.8-40.1-39.4-68.3-39.4c-21,0-40.2,8.6-54.8,22.8v813.1h0v87.6c4.7,1,9.6,1.5,14.6,1.5
		c28.4,0,53.4-16.4,67.6-41.1c4.9,2,10.2,3.1,15.7,3.1c7.7,0,15-2.1,21.4-5.8c13.7,25,38.6,41.7,66.9,41.7c22.1,0,42-10.1,56.2-26.4
		c18.1,32,50.2,53.2,86.7,53.2c31.6,0,59.8-15.9,78.6-40.8c7.4,3,15.4,4.6,23.8,4.6c20,0,38-9.3,50.7-24.3
		c5.9,2.6,12.3,4.1,19.1,4.1c1.9,0,3.9-0.1,5.7-0.4c13.8,16.5,33.5,26.9,55.4,26.9c12.2,0,23.8-3.2,34-9
		c18.8,23.8,46.3,38.9,77.1,38.9c28.5,0,54.2-12.9,72.8-33.7c11.8,7.2,25.4,11.4,39.8,11.4c5.7,0,11.3-0.6,16.7-1.9v-56.6h0V181.6z"
		/>
	<g>
		<defs>
			
				<rect id="SVGID_1_" x="110.5" y="0.2" transform="matrix(-1 -1.224647e-016 1.224647e-016 -1 844.2274 199.2632)" width="623.3" height="198.8"/>
		</defs>
		<clipPath id="SVGID_2_">
			<use xlink:href="#SVGID_1_"  style="overflow:visible;"/>
		</clipPath>
		<g class="st2">
			<g>
				<path class="st3" d="M506.8,0.8L371-60c-1.8-0.8-3.9,0-4.8,1.8L321.1,41.9c-0.8,1.8,0,3.9,1.8,4.7l135.8,60.8
					c1.8,0.8,3.9,0,4.8-1.8L508.6,5.5C509.4,3.7,508.6,1.6,506.8,0.8z"/>
				<polygon class="st4" points="392.9,77.9 388.7,76.1 436.8,-30.5 440.9,-28.7 				"/>
				<polygon class="st1" points="369.8,-56.1 325,43.1 459.9,103.5 504.7,4.3 				"/>
				<polygon class="st5" points="393.5,73.8 391.4,72.8 436.2,-26.4 438.2,-25.5 				"/>
				<path class="st6" d="M400.9,64.8l-8.1-3.6c-1.2-0.5-2.6,0-3.1,1.2c-0.5,1.2,0,2.6,1.2,3.1l8.1,3.6c1.2,0.5,2.6,0,3.1-1.2
					C402.6,66.7,402.1,65.3,400.9,64.8z"/>
				<path class="st6" d="M413.4,37.1l-8.1-3.6c-1.2-0.5-2.6,0-3.1,1.2c-0.5,1.2,0,2.6,1.2,3.1l8.1,3.6c1.2,0.5,2.6,0,3.1-1.2
					C415.1,39,414.6,37.6,413.4,37.1z"/>
				<path class="st6" d="M425.9,9.4l-8.1-3.6c-1.2-0.5-2.6,0-3.1,1.2c-0.5,1.2,0,2.6,1.2,3.1l8.1,3.6c1.2,0.5,2.6,0,3.1-1.2
					C427.6,11.3,427.1,9.9,425.9,9.4z"/>
				<path class="st6" d="M428.8-17.4l8.1,3.6c1.2,0.5,2.6,0,3.1-1.2c0.5-1.2,0-2.6-1.2-3.1l-8.1-3.6c-1.2-0.5-2.6,0-3.1,1.2
					C427-19.3,427.6-17.9,428.8-17.4z"/>
				<polygon class="st7" points="402.5,26.4 352.5,4 354.6,-0.7 404.6,21.7 				"/>
				<polygon class="st7" points="398.3,35.7 348.3,13.4 350.4,8.7 400.4,31.1 				"/>
				<polygon class="st7" points="394.1,45.1 344.1,22.7 346.2,18 396.2,40.4 				"/>
				<polygon class="st7" points="389.9,54.4 339.9,32.1 342,27.4 392,49.8 				"/>
				<polygon class="st7" points="421,34.7 471,57.1 473.1,52.4 423.1,30 				"/>
				<polygon class="st7" points="416.8,44 466.8,66.4 468.9,61.7 418.9,39.3 				"/>
				<polygon class="st7" points="425.2,25.3 475.2,47.7 477.3,43 427.3,20.6 				"/>
				<polygon class="st7" points="429.4,16 479.4,38.4 481.5,33.7 431.5,11.3 				"/>
				<polygon class="st7" points="433.6,6.6 483.6,29 485.7,24.3 435.8,1.9 				"/>
				<polygon class="st7" points="437.9,-2.7 487.9,19.7 490,15 440,-7.4 				"/>
				<polygon class="st7" points="412.6,53.4 443,67 445.1,62.3 414.7,48.7 				"/>
			</g>
			<g>
				<path class="st8" d="M581.3,63l79,53l59.2-87.6l-79-53c-2.2-1.5-5.2-0.9-6.7,1.3L580,56.4C578.5,58.6,579.1,61.5,581.3,63z"/>
				<path class="st8" d="M711.6,29.9c1.7-2.6,5.2-3.3,7.8-1.6c2.6,1.7,3.3,5.2,1.6,7.8c-1.7,2.6-5.2,3.3-7.8,1.6
					C710.6,36,709.9,32.5,711.6,29.9z"/>
				<g>
					<path class="st1" d="M632.3-16.4l3.9-5.8c0.5-0.8,1.6-1,2.4-0.5L718,30.5c1.4,0.9,2,2.4,1.9,4c-0.1,0.7-0.3,1.4-0.7,2.1
						c-0.2,0.3-0.5,0.6-0.7,0.8c-1.5,1.3-3.7,1.5-5.4,0.4c0,0,0,0,0,0L632.3-16.4z"/>
					<path class="st6" d="M632.3-16.4l2.7-4c0.5-0.8,1.6-1,2.4-0.5L720,34.5c-0.1,0.7-0.3,1.4-0.7,2.1c-0.2,0.3-0.5,0.6-0.7,0.8
						c-1.5,1.3-3.7,1.5-5.4,0.4c0,0,0,0,0,0L632.3-16.4z"/>
					<path class="st1" d="M632.3-16.4l0.9-1.3c0.5-0.8,1.6-1,2.4-0.5l82.9,55.6c-1.5,1.3-3.7,1.5-5.4,0.4c0,0,0,0,0,0L632.3-16.4z"
						/>
				</g>
				<path class="st9" d="M575,72.4l77.7,52.1l59.2-87.6l-77.7-52.1c-2.2-1.5-5.2-0.9-6.7,1.3l-53.8,79.7
					C572.2,67.9,572.8,70.9,575,72.4z"/>
				<polygon class="st8" points="710.7,36.1 713.1,37.7 653.9,125.3 651.5,123.7 				"/>
				<path class="st9" d="M653.9,125.3c2.6,1.7,6.1,1.1,7.8-1.5L721,36.2c-1.7,2.6-5.3,3.3-7.8,1.5L653.9,125.3L653.9,125.3z"/>
				<path class="st1" d="M613.9,54.1c6.9-10.2,20.8-12.9,31.1-6.1c10.3,6.9,13,20.8,6.1,31c-6.9,10.2-20.8,12.9-31.1,6.1
					C609.7,78.2,607,64.3,613.9,54.1z"/>
				<path class="st1" d="M637.5,22.3l34.3,23c1,0.7,2.3,0.4,3-0.6c0.7-1,0.4-2.3-0.6-3l-34.3-23c-1-0.7-2.3-0.4-3,0.6
					C636.3,20.3,636.5,21.6,637.5,22.3z"/>
				<polygon class="st10" points="703.9,17.9 706.7,25.5 714.8,25.2 710.2,31.9 699.4,24.6 				"/>
			</g>
			<g>
				<g>
					<g>
						<polygon class="st11" points="183.5,-9.4 190.5,-15.6 186.3,-20.3 179.3,-14.2 						"/>
						<path class="st12" d="M113.7,43.1l69.4-60.6l69.8,79.4l-73,63.7l-66.7-75.8C111.5,47.8,111.7,44.8,113.7,43.1z"/>
						<path class="st13" d="M122.9,53.5l69.4-60.6L262,72.3l-69.4,60.6c-2,1.7-5,1.5-6.8-0.4l-63.5-72.2
							C120.7,58.2,120.9,55.2,122.9,53.5z"/>
						<polygon class="st14" points="192.2,-7.1 198.7,-12.7 268.5,66.6 262,72.3 						"/>
						<polygon class="st1" points="115.1,46.3 188.5,-17.8 195.5,-9.9 122,54.2 						"/>
						<polygon class="st6" points="117,48.6 190.5,-15.6 193.5,-12.2 120,52 						"/>
						<polygon class="st14" points="186.3,-20.3 189.6,-23.2 200.2,-11 197,-8.2 						"/>
						<polygon class="st15" points="173.6,91.2 219.5,51.2 237.4,71.5 191.5,111.6 						"/>
						<polygon class="st6" points="189.8,101.6 227.8,68.5 229.5,70.5 191.6,103.7 						"/>
						<polygon class="st6" points="203,81.7 223.6,63.8 225.4,65.8 204.8,83.8 						"/>
						<polygon class="st6" points="181.5,92.2 219.5,59.1 221.3,61.1 183.3,94.3 						"/>
					</g>
				</g>
				<polygon class="st14" points="123.3,31.4 126.6,28.5 196.4,107.9 193.1,110.8 				"/>
				<polygon class="st7" points="195.4,108.7 125.6,29.3 124.2,30.5 194.1,109.9 				"/>
				<polygon class="st11" points="114.1,21 117.4,18.1 126.6,28.5 123.3,31.4 				"/>
				<polygon class="st14" points="125.6,29.3 116.4,18.9 115.1,20.1 124.2,30.5 				"/>
			</g>
			<g>
				<path class="st16" d="M715.8,104.2l6.1-10.2c0.2-0.3-0.2-0.6-0.5-0.5l-10.3,6.1L715.8,104.2z"/>
				<polygon class="st17" points="711.2,99.6 715.8,104.2 658.7,161.1 654.1,156.5 				"/>
				<path class="st18" d="M654.7,160.4c1.3,1.3,3,1.6,4,0.7c0.9-0.9,0.6-2.7-0.7-3.9c-1.3-1.3-3-1.6-4-0.7
					C653.2,157.4,653.4,159.2,654.7,160.4z"/>
				<polygon class="st18" points="660.6,150 665.2,154.6 658.7,161.1 654.1,156.5 				"/>
				<path class="st19" d="M666.6,148.6c-1.3-1.3-3-1.6-4-0.7l-7,6.9c0.9-0.9,2.7-0.6,4,0.7c1.3,1.3,1.6,3,0.7,3.9l7-6.9
					C668.2,151.6,667.9,149.9,666.6,148.6z"/>
				<path class="st14" d="M718.9,96.5c0.3,0.3,0.6,0.7,0.8,1.1l2.2-3.6c0.2-0.3-0.2-0.6-0.5-0.5l-3.7,2.2
					C718.2,95.9,718.6,96.1,718.9,96.5z"/>
			</g>
			<g>
				<path class="st16" d="M129,95.7l-7.2-9.5c-0.2-0.3-0.7-0.1-0.6,0.3l1.8,11.8L129,95.7z"/>
				<polygon class="st17" points="123,98.2 129,95.7 160.2,170 154.2,172.5 				"/>
				<path class="st18" d="M158.1,173.4c1.7-0.7,2.6-2.2,2.1-3.4c-0.5-1.2-2.2-1.6-3.9-0.9c-1.7,0.7-2.6,2.2-2.1,3.4
					C154.6,173.7,156.4,174.1,158.1,173.4z"/>
				<polygon class="st18" points="150.6,164 156.6,161.5 160.2,170 154.2,172.5 				"/>
				<path class="st19" d="M151.6,157.9c-1.7,0.7-2.6,2.2-2.1,3.4l3.8,9.1c-0.5-1.2,0.5-2.7,2.1-3.4c1.7-0.7,3.4-0.3,3.9,0.9
					l-3.8-9.1C155,157.6,153.2,157.2,151.6,157.9z"/>
				<path class="st14" d="M123,89.9c0.5-0.2,0.9-0.3,1.4-0.3l-2.6-3.4c-0.2-0.3-0.7-0.1-0.6,0.3l0.6,4.2
					C122.2,90.4,122.6,90.1,123,89.9z"/>
			</g>
			<g>
				<path class="st14" d="M281.3,64.8L271,58.7c-0.3-0.2-0.6,0.2-0.5,0.5l6.1,10.2L281.3,64.8z"/>
				<polygon class="st14" points="276.7,69.4 281.3,64.8 338.4,121.7 333.8,126.3 				"/>
				<path class="st14" d="M337.8,125.7c1.3-1.3,1.6-3,0.7-3.9c-0.9-0.9-2.7-0.6-4,0.7c-1.3,1.3-1.6,3-0.7,3.9
					C334.7,127.2,336.5,126.9,337.8,125.7z"/>
				<polygon class="st14" points="327.3,119.8 331.9,115.2 338.4,121.7 333.8,126.3 				"/>
				<path class="st19" d="M331.2,119.2c-1.3,1.3-1.6,3-0.7,3.9l1.6,1.6c-0.9-0.9-0.6-2.7,0.7-3.9c1.3-1.3,3-1.6,4-0.7l-1.6-1.6
					C334.3,117.6,332.5,117.9,331.2,119.2z"/>
				<path class="st7" d="M280.3,68.5c-1.3,1.3-1.6,3-0.7,3.9l1.6,1.6c-0.9-0.9-0.6-2.7,0.7-3.9c1.3-1.3,3-1.6,4-0.7l-1.6-1.6
					C283.4,66.9,281.6,67.2,280.3,68.5z"/>
				<path class="st6" d="M271.6,61l-1.1-1.8c-0.2-0.3,0.2-0.6,0.5-0.5l1.8,1.1c-0.2,0.1-0.4,0.3-0.6,0.5
					C272,60.5,271.8,60.8,271.6,61z"/>
			</g>
			<g>
				<path class="st20" d="M334.6-85.1l-95,65.4L305.2,75L334.6-85.1z M269.1-14.3l35.5-24.4l-11,59.8L269.1-14.3z"/>
				<polygon class="st14" points="322.2,-70.1 324.5,-71.7 321.5,-76.1 319.2,-74.4 				"/>
				<polygon class="st14" points="312.1,-63.2 314.4,-64.8 311.4,-69.1 309.1,-67.5 				"/>
				<polygon class="st14" points="302,-56.2 304.4,-57.8 301.3,-62.2 299,-60.6 				"/>
				<polygon class="st14" points="291.9,-49.3 294.3,-50.9 291.2,-55.2 288.9,-53.6 				"/>
				<polygon class="st14" points="281.8,-42.3 284.2,-43.9 281.1,-48.3 278.8,-46.7 				"/>
				<polygon class="st14" points="271.7,-35.4 274.1,-37 271,-41.3 268.7,-39.7 				"/>
				<polygon class="st14" points="261.6,-28.4 264,-30 260.9,-34.4 258.6,-32.8 				"/>
				<polygon class="st14" points="251.5,-21.5 253.9,-23.1 250.8,-27.4 248.5,-25.8 				"/>
				<polygon class="st14" points="298.9,56.6 300.5,59 296.2,62 294.5,59.6 				"/>
				<polygon class="st14" points="291.9,46.5 293.6,48.9 289.2,51.9 287.6,49.5 				"/>
				<polygon class="st14" points="285,36.5 286.6,38.8 282.2,41.8 280.6,39.5 				"/>
				<polygon class="st14" points="278,26.4 279.6,28.8 275.3,31.8 273.6,29.4 				"/>
				<polygon class="st14" points="271,16.4 272.6,18.7 268.3,21.7 266.6,19.4 				"/>
				<polygon class="st14" points="264,6.3 265.7,8.7 261.3,11.7 259.7,9.3 				"/>
				<polygon class="st14" points="257.1,-3.8 258.7,-1.4 254.3,1.6 252.7,-0.8 				"/>
				<polygon class="st14" points="250.1,-13.8 251.7,-11.5 247.4,-8.5 245.7,-10.8 				"/>
			</g>
			<g>
				<path class="st21" d="M509,54.8c-4.4-16.3,5.6-33.1,22.3-37.6c16.7-4.5,33.9,5.1,38.2,21.3c4.4,16.3-5.6,33.1-22.3,37.6
					C530.6,80.7,513.4,71.1,509,54.8z"/>
				<polygon class="st21" points="528.6,49 548.6,43.7 565.7,106.7 545.7,112.1 				"/>
				<path class="st22" d="M565.1,51.5c0.7-3.8,0.6-7.7-0.4-11.5C560.9,26,546.3,17.8,532,21.7c-14.3,3.8-22.8,18.2-19.1,32.1
					c1,3.8,2.9,7.3,5.5,10.2L565.1,51.5z"/>
				<path class="st21" d="M545.8,116.9l21.9-5.9c0.9-0.2,1.5-1.2,1.2-2l-0.3-1.3c-0.2-0.9-1.2-1.4-2.1-1.2l-21.9,5.9
					c-0.9,0.2-1.5,1.2-1.2,2l0.3,1.3C544,116.6,544.9,117.1,545.8,116.9z"/>
				<polygon class="st23" points="545.1,109.9 565.1,104.5 565.7,106.7 545.7,112.1 				"/>
			</g>
		</g>
	</g>
	<g>
		<defs>
			<rect id="SVGID_3_" x="861.1" y="165" width="804.1" height="230.3"/>
		</defs>
		<clipPath id="SVGID_4_">
			<use xlink:href="#SVGID_3_"  style="overflow:visible;"/>
		</clipPath>
		<g class="st24">
			<g>
				<path class="st25" d="M1699.6,317.6l-70.7-94.6l-118.1,76.6l70.7,94.6c2,2.6,6,3.2,8.9,1.3l107.4-69.7
					C1700.8,323.9,1701.6,320.2,1699.6,317.6z"/>
				<path class="st25" d="M1521.3,301.1c-3.5,2.3-8.2,1.6-10.5-1.5c-2.3-3.1-1.4-7.4,2-9.7s8.2-1.6,10.5,1.5
					C1525.7,294.5,1524.8,298.9,1521.3,301.1z"/>
				<g>
					<path class="st1" d="M1595.9,388.2l-7.9,5.1c-1.1,0.7-2.5,0.5-3.3-0.5l-71.1-95c-1.2-1.6-1.3-3.7-0.4-5.4
						c0.4-0.8,1.1-1.6,2-2.1c0.4-0.3,0.9-0.5,1.3-0.7c2.5-0.9,5.3-0.2,6.9,1.8c0,0,0,0,0,0L1595.9,388.2z"/>
					<path class="st6" d="M1595.9,388.2l-5.4,3.5c-1.1,0.7-2.5,0.5-3.3-0.5l-73.9-98.8c0.4-0.8,1.1-1.6,2-2.1
						c0.4-0.3,0.9-0.5,1.3-0.7c2.5-0.9,5.3-0.2,6.9,1.8c0,0,0,0,0,0L1595.9,388.2z"/>
					<path class="st1" d="M1595.9,388.2l-1.8,1.1c-1.1,0.7-2.5,0.5-3.3-0.5l-74.2-99.3c2.5-0.9,5.3-0.2,6.9,1.8c0,0,0,0,0,0
						L1595.9,388.2z"/>
				</g>
				<path class="st10" d="M1712.2,309.4l-69.6-93.1l-118.1,76.6l69.6,93.1c2,2.6,6,3.2,8.9,1.3l107.4-69.7
					C1713.4,315.7,1714.2,312,1712.2,309.4z"/>
				<polygon class="st26" points="1525.6,294.4 1523.4,291.5 1641.5,214.9 1643.7,217.8 				"/>
				<path class="st26" d="M1641.5,214.9c-2.3-3.1-7-3.8-10.5-1.5l-118.1,76.6c3.5-2.3,8.2-1.6,10.5,1.5L1641.5,214.9L1641.5,214.9z"
					/>
				<polygon class="st10" points="1524.7,318.2 1525.2,308.3 1515,305.2 1524,299.4 1533.7,312.4 				"/>
			</g>
			<g>
				<g>
					<g>
						<polygon class="st11" points="1279.4,429.5 1264.4,424.7 1260.8,433.9 1275.8,438.8 						"/>
						<path class="st27" d="M1417.5,484.1l-149.8-47.9l59.9-154.7l155.9,49.9l-57.7,149.1C1424.6,483.5,1420.9,485.2,1417.5,484.1z"
							/>
						<path class="st17" d="M1425.3,463.8l-149.8-47.9l59.9-154.7l149.8,47.9c3.4,1.1,5.2,4.5,4,7.6l-55.6,143.5
							C1432.5,463.2,1428.7,464.9,1425.3,463.8z"/>
						<polygon class="st14" points="1275.5,415.9 1261.7,411.4 1321.6,256.7 1335.5,261.1 						"/>
						<polygon class="st1" points="1419.7,479.2 1262.7,429 1268.6,413.7 1425.6,463.9 						"/>
						<polygon class="st6" points="1421.3,474.9 1264.4,424.7 1266.9,418 1423.9,468.2 						"/>
						<polygon class="st14" points="1260.8,433.9 1253.9,431.7 1263,408.1 1269.9,410.3 						"/>
						<polygon class="st15" points="1437.6,366 1339.5,334.6 1354.9,294.9 1452.9,326.3 						"/>
						<polygon class="st6" points="1439.6,336.3 1358.4,310.3 1360,306.4 1441.1,332.3 						"/>
						<polygon class="st6" points="1398.9,333.6 1354.9,319.5 1356.4,315.5 1400.4,329.6 						"/>
						<polygon class="st6" points="1432.5,354.6 1351.3,328.6 1352.9,324.7 1434.1,350.6 						"/>
					</g>
				</g>
			</g>
			<g>
				<path class="st20" d="M1222.4,486.4l31.3-138.2l-152.1-28.5L1222.4,486.4z M1220.1,368.3l-11.7,51.7l-45.1-62.3L1220.1,368.3z"
					/>
				<polygon class="st14" points="1220.6,462.7 1219.8,466.1 1226.8,467.4 1227.5,464 				"/>
				<polygon class="st14" points="1223.9,448 1223.1,451.4 1230.1,452.7 1230.9,449.3 				"/>
				<polygon class="st14" points="1227.2,433.3 1226.4,436.7 1233.4,438 1234.2,434.6 				"/>
				<polygon class="st14" points="1230.5,418.6 1229.8,422 1236.7,423.3 1237.5,419.9 				"/>
				<polygon class="st14" points="1233.9,403.9 1233.1,407.4 1240.1,408.7 1240.9,405.2 				"/>
				<polygon class="st14" points="1237.2,389.2 1236.4,392.7 1243.4,394 1244.2,390.5 				"/>
				<polygon class="st14" points="1240.5,374.5 1239.8,378 1246.7,379.3 1247.5,375.8 				"/>
				<polygon class="st14" points="1243.9,359.8 1243.1,363.3 1250.1,364.6 1250.8,361.1 				"/>
				<polygon class="st14" points="1125,330.7 1121.2,330 1122.6,323.6 1126.4,324.4 				"/>
				<polygon class="st14" points="1141.1,333.7 1137.3,333 1138.8,326.7 1142.6,327.4 				"/>
				<polygon class="st14" points="1157.3,336.8 1153.5,336 1154.9,329.7 1158.7,330.4 				"/>
				<polygon class="st14" points="1173.5,339.8 1169.7,339.1 1171.1,332.7 1174.9,333.4 				"/>
				<polygon class="st14" points="1189.6,342.8 1185.8,342.1 1187.3,335.8 1191.1,336.5 				"/>
				<polygon class="st14" points="1205.8,345.8 1202,345.1 1203.4,338.8 1207.2,339.5 				"/>
				<polygon class="st14" points="1221.9,348.9 1218.1,348.1 1219.6,341.8 1223.4,342.5 				"/>
				<polygon class="st14" points="1238.1,351.9 1234.3,351.2 1235.7,344.8 1239.5,345.5 				"/>
			</g>
			<g>
				<g>
					<path class="st5" d="M923.8,316.1c-0.4,0.2-0.8,0.2-1.3,0.1c-0.9-0.3-1.3-1.1-1-1.9l42.2-116.5c0.3-0.8,1.2-1.2,2.1-0.9
						c0.9,0.3,1.3,1.1,1,1.9l-42.2,116.5C924.5,315.6,924.2,315.9,923.8,316.1z"/>
				</g>
				<path class="st28" d="M1003.4,236c14.2,26.2,2.8,57.8-25.5,70.5c-28.3,12.7-62.9,1.7-77.1-24.5c-14.2-26.2-2.8-57.8,25.5-70.5
					C954.6,198.7,989.1,209.7,1003.4,236z"/>
				<path class="st29" d="M949.1,235.2l-3.9,1.7c-1.8,0.8-2.6,2.9-1.7,4.6c0.9,1.7,3.2,2.4,5,1.6l3.9-1.7c1.8-0.8,2.6-2.9,1.7-4.6
					C953.2,235.1,950.9,234.3,949.1,235.2z"/>
				<path class="st29" d="M1003.4,236c2,3.6,3.4,7.3,4.5,11.1l-33.4,15c-1.8,0.8-4.1,0.1-5-1.6c-0.9-1.7-0.2-3.7,1.7-4.6l4.2-1.9
					c1.8-0.8,2.6-2.9,1.7-4.6c-0.9-1.7-3.2-2.4-5-1.6l-14.1,6.3c-1.8,0.8-4.1,0.1-5-1.6c-0.9-1.7-0.2-3.7,1.7-4.6l20.8-9.3
					c1.8-0.8,2.6-2.9,1.7-4.6c-0.9-1.7-3.2-2.4-5-1.6l-7.3,3.3c-1.8,0.8-4.1,0.1-5-1.6c-0.9-1.7-0.2-3.7,1.7-4.6l17.4-7.8
					c1.8-0.8,2.6-2.9,1.7-4.6s-3.2-2.4-5-1.6l-10.2,4.6c-1.8,0.8-4.1,0.1-5-1.6s-0.2-3.7,1.7-4.6l10.1-4.5
					C985.1,214.3,996.6,223.4,1003.4,236z"/>
				<path class="st29" d="M1008.5,269.7c-3.1,14.5-12.7,27.6-27.5,35.3l-0.7,0.3c-1.8,0.8-4.1,0.1-5-1.6c-0.9-1.7-0.2-3.7,1.7-4.6
					l9-4.1c1.8-0.8,2.6-2.9,1.7-4.6c-0.9-1.7-3.2-2.4-5-1.6l-3.2,1.4c-1.8,0.8-4.1,0.1-5-1.6c-0.9-1.7-0.2-3.7,1.7-4.6l2.6-1.2
					c1.8-0.8,2.6-2.9,1.7-4.6c-0.9-1.7-3.2-2.4-5-1.6l-11.9,5.3c-1.8,0.8-4.1,0.1-5-1.6s-0.2-3.7,1.7-4.6l27.3-12.2
					c1.8-0.8,4.1-0.1,5,1.6c0.9,1.7,0.2,3.7-1.7,4.6l-1.8,0.8c-1.8,0.8-2.6,2.9-1.7,4.6c0.9,1.7,3.2,2.4,5,1.6L1008.5,269.7z"/>
				<path class="st29" d="M1009.2,254.1c0.3,2.5,0.4,5,0.3,7.5l-4,1.8c-1.8,0.8-4.1,0.1-5-1.6c-0.9-1.7-0.2-3.7,1.7-4.6
					L1009.2,254.1z"/>
				<path class="st29" d="M951.6,295.2l-9.5,4.3c-1.8,0.8-2.6,2.9-1.7,4.6c0.9,1.7,3.2,2.4,5,1.6l9.5-4.3c1.8-0.8,2.6-2.9,1.7-4.6
					C955.7,295.1,953.4,294.4,951.6,295.2z"/>
				<path class="st29" d="M908.6,257.2l-13.7,6.1c-0.9-8.5,0.5-16.9,3.9-24.7l8.8-3.9c0.9-0.4,1.9-0.4,2.8-0.2
					c0.9,0.3,1.7,0.9,2.2,1.7c0.9,1.7,0.2,3.7-1.7,4.6l-9.7,4.3c-0.9,0.4-1.6,1.1-1.9,2c-0.3,0.8-0.3,1.8,0.2,2.6
					c0.9,1.7,3.2,2.4,5,1.6l0.7-0.3c0.9-0.4,1.9-0.4,2.8-0.2c0.9,0.3,1.7,0.9,2.1,1.7C911.2,254.3,910.4,256.3,908.6,257.2z"/>
				<path class="st29" d="M933,257.7c0.9,1.7,0.2,3.7-1.7,4.6l-13.9,6.2c-0.9,0.4-1.6,1.1-1.9,2c-0.3,0.8-0.3,1.8,0.2,2.6
					c0.9,1.7,3.2,2.4,5,1.6l4-1.8c0.9-0.4,1.9-0.4,2.8-0.1c0.9,0.3,1.7,0.9,2.2,1.7c0.9,1.7,0.2,3.7-1.7,4.6l-22.6,10.1
					c-1.7-2.2-3.3-4.6-4.7-7.2c-2.1-3.8-3.6-7.7-4.6-11.6l31.8-14.3C929.8,255.3,932.1,256,933,257.7z"/>
				<path class="st14" d="M1015.4,230.6c-12.1-22.3-37.4-36.8-64.4-36.8c-1.8,0-3.3,1.4-3.3,3c0,1.7,1.5,3,3.4,3
					c24.5,0,47.4,13.1,58.4,33.4c15.9,29.3,3.1,64.8-28.6,79c-22.2,10-48.3,7.3-68-6.8c-1.5-1-3.5-0.8-4.6,0.5
					c-1.1,1.3-0.8,3.2,0.6,4.3c20.9,15,48.2,18.2,72,8.7l14.5,26.6l-17.2,7.7c-1.6,0.7-2.3,2.5-1.5,4.1c0.8,1.5,2.8,2.1,4.4,1.4
					l40.3-18.1c1.6-0.7,2.3-2.5,1.5-4.1c-0.8-1.5-2.8-2.1-4.4-1.4l-17.2,7.7l-14.4-26.6C1019.6,299.8,1032.5,262,1015.4,230.6z"/>
			</g>
			<g>
				<path class="st16" d="M1524.3,362.9l10.7,10.1c0.3,0.3,0.9,0,0.7-0.4l-4.1-13.5L1524.3,362.9z"/>
				<polygon class="st17" points="1531.6,359.1 1524.3,362.9 1472.9,280.4 1480.2,276.7 				"/>
				<path class="st18" d="M1475.1,276.2c-2,1-3,2.9-2.2,4.3c0.8,1.3,3.1,1.5,5.1,0.5c2-1,3-2.9,2.2-4.3
					C1479.4,275.4,1477.1,275.1,1475.1,276.2z"/>
				<polygon class="st18" points="1486.1,286.1 1478.7,289.9 1472.9,280.4 1480.2,276.7 				"/>
				<path class="st19" d="M1485.8,293.3c2-1,3-2.9,2.2-4.3l-6.3-10c0.8,1.3-0.2,3.2-2.2,4.3c-2,1-4.3,0.8-5.1-0.5l6.3,10
					C1481.4,294.2,1483.7,294.4,1485.8,293.3z"/>
				<path class="st14" d="M1532.8,368.8c-0.6,0.3-1.1,0.5-1.7,0.6l3.8,3.6c0.3,0.3,0.9,0,0.7-0.4l-1.4-4.8
					C1533.8,368.2,1533.4,368.5,1532.8,368.8z"/>
			</g>
			<g>
				<path class="st16" d="M1050.1,290.7l-5.5-13.1c-0.2-0.4-0.8-0.3-0.8,0.1l-2,13.9L1050.1,290.7z"/>
				<polygon class="st17" points="1041.7,291.6 1050.1,290.7 1062.2,384.8 1053.8,385.7 				"/>
				<path class="st18" d="M1058.4,388c2.3-0.2,4-1.7,3.8-3.1c-0.2-1.5-2.2-2.5-4.5-2.3c-2.3,0.2-4,1.7-3.8,3.1
					C1054,387.2,1056,388.2,1058.4,388z"/>
				<polygon class="st18" points="1052.4,375 1060.8,374.1 1062.2,384.8 1053.8,385.7 				"/>
				<path class="st19" d="M1055.8,368.4c-2.3,0.2-4,1.7-3.8,3.1l1.5,11.5c-0.2-1.5,1.5-2.9,3.8-3.1c2.3-0.2,4.3,0.8,4.5,2.3
					l-1.5-11.5C1060.2,369.2,1058.1,368.2,1055.8,368.4z"/>
				<path class="st14" d="M1044.7,282.3c0.6-0.1,1.2,0,1.8,0.1l-2-4.7c-0.2-0.4-0.8-0.3-0.8,0.1l-0.7,4.9
					C1043.5,282.5,1044.1,282.3,1044.7,282.3z"/>
			</g>
			<g>
				<path class="st16" d="M1159.6,301.1l-14,5.8c-0.4,0.2-0.3,0.7,0.2,0.8l15.3,1L1159.6,301.1z"/>
				<polygon class="st17" points="1161.1,308.7 1159.6,301.1 1262.1,284.3 1263.6,291.8 				"/>
				<path class="st18" d="M1265.8,287.6c-0.4-2.1-2.1-3.6-3.7-3.3c-1.6,0.3-2.6,2.2-2.2,4.3c0.4,2.1,2.1,3.6,3.7,3.3
					C1265.3,291.5,1266.2,289.6,1265.8,287.6z"/>
				<polygon class="st18" points="1251.9,293.7 1250.4,286.2 1262.1,284.3 1263.6,291.8 				"/>
				<path class="st19" d="M1244.5,291.1c0.4,2.1,2.1,3.6,3.7,3.3l12.5-2.1c-1.6,0.3-3.3-1.2-3.7-3.3c-0.4-2.1,0.6-4,2.2-4.3
					l-12.5,2.1C1245.1,287.1,1244.1,289,1244.5,291.1z"/>
				<path class="st14" d="M1150.6,306.5c-0.1-0.6-0.1-1.1,0-1.6l-5,2.1c-0.4,0.2-0.3,0.7,0.2,0.8l5.5,0.3
					C1150.9,307.6,1150.7,307.1,1150.6,306.5z"/>
			</g>
		</g>
	</g>
	<g>
		<path class="st1" d="M234.2,956h1.7c2.4,0,4.4,2,4.4,4.4v1.6c0,0.7,0.5,1.3,1.2,1.3c0.7,0,1.4-0.5,1.4-1.3v-1.7
			c0-2.4,2-4.4,4.4-4.4h1.7c0.7,0,1.3-0.6,1.3-1.3l0,0c0-0.7-0.6-1.3-1.3-1.3h-1.7c-2.4,0-4.4-2-4.4-4.4v-1.6c0-0.7-0.5-1.3-1.2-1.3
			c-0.7,0-1.4,0.5-1.4,1.3v1.7c0,2.4-2,4.4-4.4,4.4h-1.7c-0.7,0-1.3,0.6-1.3,1.3l0,0C232.9,955.4,233.5,956,234.2,956z"/>
		<path class="st1" d="M506.3,850.7h1.7c2.4,0,4.4,2,4.4,4.4v1.6c0,0.7,0.5,1.3,1.2,1.3c0.7,0,1.4-0.5,1.4-1.3v-1.7
			c0-2.4,2-4.4,4.4-4.4h1.7c0.7,0,1.3-0.6,1.3-1.3l0,0c0-0.7-0.6-1.3-1.3-1.3h-1.7c-2.4,0-4.4-2-4.4-4.4v-1.6c0-0.7-0.5-1.3-1.2-1.3
			c-0.7,0-1.4,0.5-1.4,1.3v1.7c0,2.4-2,4.4-4.4,4.4h-1.7c-0.7,0-1.3,0.6-1.3,1.3l0,0C505.1,850.2,505.6,850.7,506.3,850.7z"/>
		<path class="st1" d="M346.6,895.4h1.7c2.4,0,4.4,2,4.4,4.4v1.6c0,0.7,0.5,1.3,1.2,1.3c0.7,0,1.4-0.5,1.4-1.3v-1.7
			c0-2.4,2-4.4,4.4-4.4h1.7c0.7,0,1.3-0.6,1.3-1.3l0,0c0-0.7-0.6-1.3-1.3-1.3h-1.7c-2.4,0-4.4-2-4.4-4.4v-1.6c0-0.7-0.5-1.3-1.2-1.3
			c-0.7,0-1.4,0.5-1.4,1.3v1.7c0,2.4-2,4.4-4.4,4.4h-1.7c-0.7,0-1.3,0.6-1.3,1.3l0,0C345.3,894.8,345.9,895.4,346.6,895.4z"/>
		<path class="st1" d="M397,901.2h1c1.4,0,2.5,1.1,2.5,2.5v0.9c0,0.4,0.3,0.8,0.7,0.8c0.4,0,0.8-0.3,0.8-0.7v-1
			c0-1.4,1.1-2.5,2.5-2.5h1c0.4,0,0.7-0.3,0.7-0.7l0,0c0-0.4-0.3-0.7-0.7-0.7h-1c-1.4,0-2.5-1.1-2.5-2.5v-0.9c0-0.4-0.3-0.8-0.7-0.8
			c-0.4,0-0.8,0.3-0.8,0.7v1c0,1.4-1.1,2.5-2.5,2.5h-1c-0.4,0-0.7,0.3-0.7,0.7l0,0C396.2,900.9,396.6,901.2,397,901.2z"/>
		<path class="st1" d="M711.6,845.7h1c1.4,0,2.5,1.1,2.5,2.5v0.9c0,0.4,0.3,0.8,0.7,0.8c0.4,0,0.8-0.3,0.8-0.7v-1
			c0-1.4,1.1-2.5,2.5-2.5h1c0.4,0,0.7-0.3,0.7-0.7l0,0c0-0.4-0.3-0.7-0.7-0.7h-1c-1.4,0-2.5-1.1-2.5-2.5v-0.9c0-0.4-0.3-0.8-0.7-0.8
			c-0.4,0-0.8,0.3-0.8,0.7v1c0,1.4-1.1,2.5-2.5,2.5h-1c-0.4,0-0.7,0.3-0.7,0.7l0,0C710.8,845.3,711.2,845.7,711.6,845.7z"/>
		<path class="st1" d="M601.5,955.4h1c1.4,0,2.5,1.1,2.5,2.5v0.9c0,0.4,0.3,0.8,0.7,0.8c0.4,0,0.8-0.3,0.8-0.7v-1
			c0-1.4,1.1-2.5,2.5-2.5h1c0.4,0,0.7-0.3,0.7-0.7l0,0c0-0.4-0.3-0.7-0.7-0.7h-1c-1.4,0-2.5-1.1-2.5-2.5v-0.9c0-0.4-0.3-0.8-0.7-0.8
			c-0.4,0-0.8,0.3-0.8,0.7v1c0,1.4-1.1,2.5-2.5,2.5h-1c-0.4,0-0.7,0.3-0.7,0.7l0,0C600.8,955.1,601.1,955.4,601.5,955.4z"/>
		<path class="st1" d="M268.9,860h1c1.4,0,2.5,1.1,2.5,2.5v0.9c0,0.4,0.3,0.8,0.7,0.8c0.4,0,0.8-0.3,0.8-0.7v-1
			c0-1.4,1.1-2.5,2.5-2.5h1c0.4,0,0.7-0.3,0.7-0.7l0,0c0-0.4-0.3-0.7-0.7-0.7h-1c-1.4,0-2.5-1.1-2.5-2.5v-0.9c0-0.4-0.3-0.8-0.7-0.8
			c-0.4,0-0.8,0.3-0.8,0.7v1c0,1.4-1.1,2.5-2.5,2.5h-1c-0.4,0-0.7,0.3-0.7,0.7l0,0C268.2,859.6,268.5,860,268.9,860z"/>
		<path class="st1" d="M80,928.2h1c1.4,0,2.5,1.1,2.5,2.5v0.9c0,0.4,0.3,0.8,0.7,0.8c0.4,0,0.8-0.3,0.8-0.7v-1
			c0-1.4,1.1-2.5,2.5-2.5h1c0.4,0,0.7-0.3,0.7-0.7l0,0c0-0.4-0.3-0.7-0.7-0.7h-1c-1.4,0-2.5-1.1-2.5-2.5v-0.9c0-0.4-0.3-0.8-0.7-0.8
			c-0.4,0-0.8,0.3-0.8,0.7v1c0,1.4-1.1,2.5-2.5,2.5h-1c-0.4,0-0.7,0.3-0.7,0.7l0,0C79.3,927.9,79.6,928.2,80,928.2z"/>
		<path class="st1" d="M344.5,842.9h1c1.4,0,2.5,1.1,2.5,2.5v0.9c0,0.4,0.3,0.8,0.7,0.8c0.4,0,0.8-0.3,0.8-0.7v-1
			c0-1.4,1.1-2.5,2.5-2.5h1c0.4,0,0.7-0.3,0.7-0.7l0,0c0-0.4-0.3-0.7-0.7-0.7h-1c-1.4,0-2.5-1.1-2.5-2.5V838c0-0.4-0.3-0.8-0.7-0.8
			c-0.4,0-0.8,0.3-0.8,0.7v1c0,1.4-1.1,2.5-2.5,2.5h-1c-0.4,0-0.7,0.3-0.7,0.7l0,0C343.7,842.6,344,842.9,344.5,842.9z"/>
		<path class="st1" d="M241.7,890.9h1c1.4,0,2.5,1.1,2.5,2.5v0.9c0,0.4,0.3,0.8,0.7,0.8c0.4,0,0.8-0.3,0.8-0.7v-1
			c0-1.4,1.1-2.5,2.5-2.5h1c0.4,0,0.7-0.3,0.7-0.7l0,0c0-0.4-0.3-0.7-0.7-0.7h-1c-1.4,0-2.5-1.1-2.5-2.5V886c0-0.4-0.3-0.8-0.7-0.8
			c-0.4,0-0.8,0.3-0.8,0.7v1c0,1.4-1.1,2.5-2.5,2.5h-1c-0.4,0-0.7,0.3-0.7,0.7l0,0C240.9,890.6,241.3,890.9,241.7,890.9z"/>
		<path class="st1" d="M635.1,879.1h1c1.4,0,2.5,1.1,2.5,2.5v0.9c0,0.4,0.3,0.8,0.7,0.8c0.4,0,0.8-0.3,0.8-0.7v-1
			c0-1.4,1.1-2.5,2.5-2.5h1c0.4,0,0.7-0.3,0.7-0.7l0,0c0-0.4-0.3-0.7-0.7-0.7h-1c-1.4,0-2.5-1.1-2.5-2.5v-0.9c0-0.4-0.3-0.8-0.7-0.8
			c-0.4,0-0.8,0.3-0.8,0.7v1c0,1.4-1.1,2.5-2.5,2.5h-1c-0.4,0-0.7,0.3-0.7,0.7l0,0C634.4,878.8,634.7,879.1,635.1,879.1z"/>
		<path class="st1" d="M431.4,854.1h1c1.4,0,2.5,1.1,2.5,2.5v0.9c0,0.4,0.3,0.8,0.7,0.8c0.4,0,0.8-0.3,0.8-0.7v-1
			c0-1.4,1.1-2.5,2.5-2.5h1c0.4,0,0.7-0.3,0.7-0.7l0,0c0-0.4-0.3-0.7-0.7-0.7h-1c-1.4,0-2.5-1.1-2.5-2.5v-0.9c0-0.4-0.3-0.8-0.7-0.8
			c-0.4,0-0.8,0.3-0.8,0.7v1c0,1.4-1.1,2.5-2.5,2.5h-1c-0.4,0-0.7,0.3-0.7,0.7l0,0C430.6,853.7,430.9,854.1,431.4,854.1z"/>
		<path class="st1" d="M575.5,852.9h1c1.4,0,2.5,1.1,2.5,2.5v0.9c0,0.4,0.3,0.8,0.7,0.8c0.4,0,0.8-0.3,0.8-0.7v-1
			c0-1.4,1.1-2.5,2.5-2.5h1c0.4,0,0.7-0.3,0.7-0.7l0,0c0-0.4-0.3-0.7-0.7-0.7h-1c-1.4,0-2.5-1.1-2.5-2.5v-0.9c0-0.4-0.3-0.8-0.7-0.8
			c-0.4,0-0.8,0.3-0.8,0.7v1c0,1.4-1.1,2.5-2.5,2.5h-1c-0.4,0-0.7,0.3-0.7,0.7l0,0C574.7,852.5,575.1,852.9,575.5,852.9z"/>
	</g>
</g>
</svg>
